<svg width="151" height="182" viewBox="0 0 151 182" fill="none" xmlns="http://www.w3.org/2000/svg">
<path d="M96.4599 176.278C50.0852 202.505 10.3604 127.372 2.42036 90.079C-9.68817 42.1907 31.9721 -5.5238 81.0266 1.12597C130.528 7.22987 158.343 42.0171 148.641 91.0716C142.041 123.253 123.952 156.899 97.0306 175.906L96.4599 176.253V176.278Z" fill="#3BB24D"/>
<path d="M93.9797 139.159C91.5729 138.241 89.7119 136.405 88.9427 133.949C83.6328 116.853 104.203 76.3092 122.862 90.0306L123.333 90.4772C137.948 106.283 113.631 146.777 93.9549 139.184L93.9797 139.159Z" fill="#171717"/>
<path d="M59.0182 139.134C61.4002 138.216 63.2612 136.38 64.0055 133.948C69.3402 116.852 48.7705 76.2835 30.0866 90.0048L29.6153 90.4515C15.0007 106.257 39.3418 146.776 59.0182 139.134Z" fill="#171717"/>
<path d="M63.0883 157.123C62.9642 150.573 90.7544 151.094 90.7544 157.545C90.7544 163.599 63.2372 164.418 63.0883 157.123Z" fill="#171717"/>
</svg>
