<svg width="218" height="178" viewBox="0 0 218 178" fill="none" xmlns="http://www.w3.org/2000/svg">
<path d="M83.344 129.022C79.9695 129.916 76.6446 130.883 73.3197 131.901C73.2701 140.362 77.7115 151.85 77.7115 158.922C77.7115 162.693 72.749 175.397 85.9493 177.184C107.561 180.707 80.292 140.535 83.344 129.022Z" fill="#676A6E"/>
<path d="M168.054 104.928C167.83 104.73 167.607 104.531 167.384 104.357C163.786 104.854 160.337 105.548 156.789 105.945C156.565 106.64 156.367 107.409 156.144 108.154C156.541 108.03 156.938 107.881 157.359 107.782C157.608 116.615 160.982 123.885 162.645 132.197C163.687 137.333 161.305 145.422 166.565 149.616C171.701 153.685 179.988 150.534 179.889 143.437C179.79 136.614 164.133 113.786 168.029 104.928H168.054Z" fill="#676A6E"/>
<path d="M188.251 101.53C177.854 106.468 167.209 111.802 155.672 115.921V115.797C121.008 126.094 24.5373 165.1 2.23077 124.407C-5.16338 101.53 18.0612 82.8461 36.7947 76.7671C38.333 106.79 55.0318 113.366 117.684 97.7089C176.886 76.7174 178.946 64.5593 172.792 44.8829C225.618 40.0692 232.194 77.437 188.251 101.53Z" fill="#50469E"/>
<path d="M177.135 62.2513C184.207 87.585 32.0314 130.436 36.6962 89.8181C35.9766 90.1158 36.6961 63.5416 37.242 63.3431C43.2714 -20.9949 156.268 -19.4565 177.16 62.2265L177.135 62.2513Z" fill="#ABDBFF"/>
</svg>
