<svg width="130" height="284" viewBox="0 0 130 284" fill="none" xmlns="http://www.w3.org/2000/svg">
<path d="M75.9818 221.744C72.9547 196.634 53.4768 209.487 58.5634 180.183C58.9852 177.752 57.422 175.444 54.9904 174.997C54.9656 174.997 54.9407 174.997 54.8911 174.997C52.3602 174.526 49.9287 176.288 49.6061 178.843C46.7279 201.82 53.3528 205.169 65.6846 220.876C66.2057 221.521 66.5779 222.365 66.6523 223.208C67.8433 234.498 60.6725 238.096 59.2333 246.979C57.6949 256.531 60.6725 267.052 58.5138 277.597C58.0672 279.83 59.3078 282.039 61.4417 282.758L61.9876 282.932C64.0966 283.652 66.4787 282.684 67.4464 280.674C72.7811 269.608 67.347 261.072 67.9922 252.462C68.6869 243.083 76.0066 237.996 76.0066 222.513C76.0066 222.265 76.0067 221.992 75.9571 221.769L75.9818 221.744Z" fill="#171717"/>
<path d="M111.489 115.546C109.305 118.747 80.3242 147.331 63.0795 157.827C60.9208 159.142 60.226 161.946 61.5907 164.104C71.3421 179.687 64.072 176.709 46.6783 175.965C39.1353 175.444 44.4948 168.273 47.9934 163.36C49.4077 161.35 48.9115 158.621 46.9513 157.157C8.93846 129.094 -6.44535 92.1976 3.05787 51.8028C7.59857 32.4738 19.8312 15.4523 37.6714 6.74312C94.2193 -20.8237 163.099 45.3515 111.489 115.546Z" fill="#D6333E"/>
</svg>
