<svg width="375" height="284" viewBox="0 0 375 284" fill="none" xmlns="http://www.w3.org/2000/svg">
<path d="M351.45 100.049C315.444 47.0927 216.598 12.3846 155.59 2.32099C68.5065 -11.9469 14.0735 40.8757 1.14744 124.784C-17.2354 244.473 190.074 291.213 277.963 282.178C370.593 272.651 400.918 172.641 351.45 100.005V100.049ZM285.343 240.85C245.044 266.479 263.203 227.79 257.478 216.519C249.651 200.998 227.332 199.478 212.706 206.858C200.004 213.343 184.931 238.166 175.583 235.304C164.133 227.566 167.532 213.88 158.497 201.088C143.827 180.379 105.496 166.961 83.5348 182.034C76.3337 186.999 74.4553 198.941 62.3342 194.2C32.054 162.175 46.3217 103.315 71.0558 71.1558C86.4419 51.1182 133.897 23.611 154.517 49.0607C160.42 62.121 128.172 79.9224 137.073 99.5128C165.564 119.64 171.244 62.3446 180.995 62.0763C191.774 61.7632 189.493 75.6733 196.157 81.4878C216.732 99.5575 246.431 75.8075 251.306 78.0438C263.874 83.8136 246.654 117.896 252.469 133.013C258.954 149.875 280.288 139.633 282.704 124.649C283.688 118.924 263.964 82.8743 290.442 92.2223C312.671 100.094 332.53 145.358 331.054 167.721C329.354 192.858 306.454 227.387 285.209 240.85H285.343Z" fill="#FEC63F"/>
<path d="M137.118 99.5576C165.609 119.64 171.244 62.3895 181.039 62.0764C191.819 61.7633 189.537 75.7182 196.157 81.5327C216.776 99.6024 246.475 75.8076 251.395 78.0887C264.008 83.9032 246.743 117.94 252.513 133.013C258.998 149.92 280.378 139.678 282.838 124.65C283.777 118.969 264.053 82.9192 290.576 92.2671C312.805 100.094 332.664 145.358 331.143 167.722C329.444 192.903 306.544 227.432 285.343 240.895C244.999 266.524 263.159 227.835 257.478 216.519C249.651 201.043 227.332 199.478 212.751 206.902C200.049 213.388 184.975 238.167 175.628 235.349C164.177 227.566 167.532 213.925 158.497 201.133C143.827 180.424 105.496 166.961 83.5795 182.079C76.4232 186.999 74.5447 198.986 62.379 194.2C32.0988 162.175 46.4112 103.359 71.1005 71.156C86.4866 51.1183 133.942 23.611 154.517 49.0607C160.42 62.121 128.172 79.9225 137.118 99.5576Z" fill="#171717"/>
</svg>
