<svg width="209" height="158" viewBox="0 0 209 158" fill="none" xmlns="http://www.w3.org/2000/svg">
<path d="M195.399 56.0387C175.425 26.6606 120.589 7.40606 86.7451 1.82323C38.435 -6.09199 8.23805 23.2117 1.06721 69.7601C-9.13076 136.159 105.876 162.088 154.632 157.076C206.019 151.79 222.842 96.3095 195.399 56.0139V56.0387ZM158.726 134.149C136.37 148.366 146.444 126.903 143.268 120.651C138.926 112.041 126.545 111.197 118.431 115.291C111.384 118.889 103.022 132.66 97.8363 131.072C91.4842 126.779 93.3701 119.187 88.358 112.09C80.2195 100.602 58.9551 93.1583 46.7721 101.52C42.7773 104.274 41.7352 110.899 35.011 108.269C18.2128 90.5034 26.1279 57.85 39.8493 40.0098C48.3848 28.8937 74.711 13.634 86.1496 27.7524C89.4249 34.9976 71.535 44.8731 76.4727 55.741C92.2783 66.9066 95.4293 35.1217 100.838 34.9728C106.818 34.7991 105.553 42.5159 109.25 45.7415C120.664 55.7658 137.14 42.5903 139.844 43.8309C146.816 47.0317 137.264 65.9389 140.489 74.3256C144.087 83.6799 155.922 77.9978 157.262 69.6856C157.808 66.5096 146.866 46.5107 161.555 51.6965C173.887 56.0635 184.904 81.1738 184.085 93.5801C183.142 107.525 170.438 126.68 158.652 134.149H158.726Z" fill="#FEC63F"/>
<path d="M76.4975 55.7658C92.3031 66.9067 95.4293 35.1466 100.863 34.9729C106.843 34.7992 105.578 42.5407 109.25 45.7664C120.689 55.7907 137.164 42.5904 139.893 43.8558C146.891 47.0814 137.313 65.9638 140.514 74.3257C144.112 83.7048 155.972 78.0227 157.337 69.6857C157.858 66.5345 146.915 46.5356 161.629 51.7214C173.961 56.0636 184.978 81.1739 184.134 93.5802C183.192 107.55 170.488 126.705 158.726 134.174C136.345 148.391 146.419 126.928 143.268 120.651C138.926 112.066 126.545 111.197 118.456 115.316C111.409 118.914 103.047 132.66 97.8611 131.097C91.5091 126.779 93.3701 119.212 88.358 112.115C80.2194 100.627 58.9551 93.1584 46.7969 101.545C42.8269 104.274 41.7848 110.924 35.0358 108.269C18.2376 90.5035 26.1776 57.8749 39.8741 40.0099C48.4096 28.8938 74.7358 13.634 86.1496 27.7524C89.4249 34.9976 71.535 44.8731 76.4975 55.7658Z" fill="#171717"/>
</svg>
