<svg width="160" height="177" viewBox="0 0 160 177" fill="none" xmlns="http://www.w3.org/2000/svg">
<path d="M112.435 60.0356C101.691 73.7074 79.7071 83.4587 78.541 53.9069C77.3748 24.3552 87.2998 5.19986 103.279 3.78554C139.009 -0.928851 130.722 40.6074 112.435 60.0356Z" fill="#83D5F7"/>
<path d="M69.2363 5.52303C86.3818 17.9293 89.4338 68.8696 76.2335 74.8742C54.6217 83.9556 9.95909 13.0909 48.3938 1.62746C60.6264 -2.01999 69.2363 5.52303 69.2363 5.52303Z" fill="#56C2F0"/>
<path d="M123.775 61.2514C99.9052 53.5595 66.1353 56.5619 66.3338 56.81C8.54527 61.6237 -29.3683 135.739 31.9187 167.127C65.5894 184.396 135.784 177.672 154.021 141.322C169.43 110.703 147.645 68.9433 123.775 61.2514Z" fill="#FFD63A"/>
<mask id="mask0_272_729" style="mask-type:luminance" maskUnits="userSpaceOnUse" x="0" y="56" width="160" height="121">
<path d="M123.775 61.2514C99.9052 53.5595 66.1353 56.5619 66.3338 56.81C8.54527 61.6237 -29.3683 135.739 31.9187 167.127C65.5894 184.396 135.784 177.672 154.021 141.322C169.43 110.703 147.645 68.9433 123.775 61.2514Z" fill="white"/>
</mask>
<g mask="url(#mask0_272_729)">
<path d="M46.0121 187.721C49.8829 188.366 61.2223 191.84 65.3163 191.939C94.5455 187.026 77.2015 53.832 36.1119 53.2861C30.7772 55.9659 26.435 58.9434 23.1846 62.2187C53.6544 58.5712 77.5489 174.669 46.0121 187.696V187.721Z" fill="#171717"/>
<path d="M115.662 174.074C119.136 174.744 129.383 178.243 133.031 178.367C159.282 173.628 143.055 41.1287 106.109 40.3843C101.32 43.0144 97.4246 45.9671 94.5215 49.2175C121.915 45.719 143.948 161.271 115.662 174.074Z" fill="#171717"/>
<path d="M86.2092 186.356C90.4025 187.051 95.4642 190.376 99.8809 190.5C124.966 186.133 108.392 42.6663 72.0164 40.979C66.235 43.8573 61.5454 47.1077 58.0469 50.6559C88.1445 51.0529 102.164 179.656 86.234 186.356H86.2092Z" fill="#171717"/>
<path d="M28.5945 115.243C33.5552 115.243 37.5766 111.221 37.5766 106.26C37.5766 101.3 33.5552 97.2783 28.5945 97.2783C23.6338 97.2783 19.6123 101.3 19.6123 106.26C19.6123 111.221 23.6338 115.243 28.5945 115.243Z" fill="#171717"/>
</g>
</svg>
