<svg width="208" height="143" viewBox="0 0 208 143" fill="none" xmlns="http://www.w3.org/2000/svg">
<path d="M206.884 105.094C203.485 73.7311 197.803 31.1031 187.828 0.608461C181.675 -3.13824 14.4627 21.5502 0.369141 36.7107C1.01427 43.7327 18.4327 116.26 21.9561 141.321C27.5389 148.591 204.701 117.997 204.701 117.997C208.348 115.118 207.157 109.163 206.909 105.094H206.884Z" fill="#208C44"/>
<path d="M177.753 40.8052C165.918 44.8001 154.876 34.4532 155.621 27.332C155.621 27.332 45.4775 42.5173 45.5768 47.0084C45.8249 60.8786 42.8723 65.99 28.6299 69.8111C35.1804 97.8742 36.6195 103.556 36.6195 103.556C45.6016 101.571 59.0749 108.593 62.3998 118.221L168.126 101.025C168.027 93.7553 177.48 83.8799 186.884 84.5498C186.884 84.5498 179.887 55.3702 177.753 40.8052Z" fill="#8EBF56"/>
<path d="M118.179 94.3016C117.857 95.0956 118.477 96.8077 118.552 98.0483C118.874 100.108 114.954 100.132 113.341 100.281C111.554 99.7851 112.572 95.9145 109.743 96.237C103.788 96.3859 93.2429 88.8181 95.5752 84.4511C96.5181 82.9623 98.1061 83.3097 99.9423 83.4833C102.374 83.7315 105.6 83.9548 107.833 83.4833C109.545 83.1112 110.636 82.3171 110.264 80.8035C109.098 76.8583 104.408 75.1215 100.637 74.3027C96.1707 73.1613 91.8037 72.0944 91.0842 66.4371C90.8609 64.328 91.0593 61.8467 91.9526 59.9858C94.6819 54.0804 101.853 52.7156 100.414 45.6937C100.339 44.7756 100.091 43.5846 101.133 43.0884C102.2 42.5425 104.409 42.1207 105.227 42.4432C105.699 42.6169 105.947 43.0139 106.121 43.535C106.518 45.3463 107.56 47.257 109.272 48.448C113.49 51.9466 122.844 53.212 123.961 58.8196C124.333 65.2461 115.152 60.5813 111.728 60.358C107.51 59.6384 109.718 64.2784 111.902 65.3702C114.334 66.7597 117.46 66.5859 119.991 67.8761C130.859 74.2778 126.789 88.8676 118.353 93.9542L118.155 94.3513L118.179 94.3016Z" fill="#171717"/>
<path d="M159.517 65.9394C159.69 77.8743 140.932 77.8743 141.106 65.9394C140.932 54.0046 159.69 54.0046 159.517 65.9394Z" fill="#171717"/>
<path d="M71.4061 83.062C71.5798 94.3517 53.8139 94.3517 53.9876 83.062C53.8139 71.7723 71.5798 71.7723 71.4061 83.062Z" fill="#171717"/>
</svg>
