<svg width="218" height="177" viewBox="0 0 218 177" fill="none" xmlns="http://www.w3.org/2000/svg">
<path d="M85.7227 87.3745C87.3603 93.0814 99.2455 113.8 106.317 111.071C112.818 105.488 105.945 94.2724 101.107 90.1039C99.5185 88.7392 83.5888 79.9308 85.7227 87.3498V87.3745Z" fill="#BF864C"/>
<path d="M41.456 114.021C41.3567 126.056 49.4704 139.653 62.3978 140.472C70.9581 127.842 54.9788 112.16 41.456 114.021Z" fill="#BF864C"/>
<path d="M133.064 52.9574C135.322 63.5524 140.955 84.9904 154.924 79.1595C160.333 68.6389 136.96 48.5656 133.064 52.9574Z" fill="#BF864C"/>
<path d="M169.588 32.1404C169.439 42.3632 175.468 53.4544 186.287 54.9184C194.103 44.9933 180.307 31.9667 169.588 32.1404Z" fill="#BF864C"/>
<path d="M178.818 1.8929C159.39 6.06142 130.334 22.6362 112.742 32.7101C78.5505 52.2872 34.7067 81.442 12.3505 114.17C-16.7794 156.823 11.6558 188.905 59.3704 171.313C102.073 155.582 214.499 82.2112 217.6 33.3304C219.387 5.01928 205.492 -3.8388 178.818 1.8929ZM62.3728 140.446C49.4454 139.627 41.3317 126.03 41.431 113.996C54.929 112.135 70.9083 127.792 62.3728 140.446ZM106.316 111.068C99.2442 113.773 87.359 93.0542 85.7213 87.3722C83.5875 79.9284 99.4923 88.7369 101.105 90.1264C105.944 94.2949 112.817 105.485 106.316 111.093V111.068ZM154.924 79.1592C140.954 84.9902 135.322 63.5521 133.064 52.9571C136.959 48.5653 160.333 68.6387 154.924 79.1592ZM186.287 54.9422C175.469 53.4783 169.439 42.387 169.588 32.1642C180.332 32.0154 194.103 45.0172 186.287 54.9422Z" fill="#A3682E"/>
</svg>
