<svg width="229" height="142" viewBox="0 0 229 142" fill="none" xmlns="http://www.w3.org/2000/svg">
<path d="M22.0085 115.014C1.31479 117.743 -0.620582 96.851 10.6195 83.9981C-15.8059 67.0015 14.0188 40.5761 38.3104 48.9379C58.9048 56.0343 52.1558 68.6143 55.1581 84.7425C58.9048 104.94 76.8195 119.654 54.4633 135.583C36.499 148.387 14.9121 137.643 22.0333 115.014H22.0085Z" fill="#EAA6E8"/>
<path d="M189.965 88.9362C182.397 84.3459 175.797 68.714 172.894 58.5904C170.686 50.8737 168.552 31.8921 168.8 26.7063C169.42 13.3323 206.887 -13.3908 214.629 9.38711C217.78 18.667 211.552 27.8973 211.924 29.386C212.346 31.0237 224.008 34.5471 223.264 47.4496C223.04 51.3452 217.606 54.5708 218.599 58.5904C219.318 61.5431 224.355 63.4785 226.067 66.8778C235.893 86.455 207.16 99.3823 189.99 88.961L189.965 88.9362Z" fill="#EAA6E8"/>
<path d="M93.5928 33.505C109.126 28.468 143.739 21.2972 159.495 23.307C184.208 26.4334 195.25 74.6442 172.646 92.683C155.624 106.255 105.95 123.351 84.3378 123.401C64.1403 123.451 55.6296 110.846 50.3694 92.5093C39.5511 54.8686 61.4109 43.9511 93.6176 33.5298L93.5928 33.505Z" fill="#AA60C8"/>
<mask id="mask0_272_593" style="mask-type:luminance" maskUnits="userSpaceOnUse" x="47" y="22" width="138" height="102">
<path d="M93.5928 33.505C109.126 28.468 143.739 21.2972 159.495 23.307C184.208 26.4334 195.25 74.6442 172.646 92.683C155.624 106.255 105.95 123.351 84.3378 123.401C64.1403 123.451 55.6296 110.846 50.3694 92.5093C39.5511 54.8686 61.4109 43.9511 93.6176 33.5298L93.5928 33.505Z" fill="white"/>
</mask>
<g mask="url(#mask0_272_593)">
<path d="M154.261 35.8367C153.045 30.4276 155.675 23.5297 149.894 20.8499C142.177 17.2769 103.494 27.1771 93.7431 30.2539C89.8971 31.4945 63.4965 42.288 62.9755 43.9753C60.9657 50.6995 72.8013 67.4479 77.8134 84.7671C82.9992 102.682 84.215 109.083 87.0685 120.572C88.2843 125.584 92.5769 125.708 96.6213 125.311C122.153 122.83 153.144 108.215 174.061 93.5012C164.236 74.2714 159.099 56.9522 154.286 35.8367H154.261ZM115.876 71.6909C117.166 71.3435 117.117 66.778 117.985 65.5622C122.65 58.9124 131.16 59.3342 133.939 67.3735C137.984 62.8576 139.324 58.8132 146.172 60.1779C150.663 71.7157 134.808 88.4642 127.711 75.3135L124.982 75.9339C116.769 94.444 108.308 86.0574 102.601 70.748L100.393 79.4324L93.1972 81.4919C87.8625 58.168 102.75 49.5581 115.901 71.7157L115.876 71.6909Z" fill="#F291C2"/>
<path d="M117.985 65.5377C122.675 58.9127 131.16 59.3097 133.939 67.3738C138.009 62.8331 139.324 58.8135 146.197 60.1782C150.688 71.716 134.808 88.4645 127.712 75.3138L124.957 75.9341C116.744 94.4195 108.283 86.0329 102.576 70.7235L100.393 79.4079L93.1725 81.4673C87.8626 58.1187 102.75 49.5336 115.876 71.6912C117.141 71.319 117.117 66.7783 117.985 65.5377Z" fill="black"/>
</g>
</svg>
