<svg width="150" height="187" viewBox="0 0 150 187" fill="none" xmlns="http://www.w3.org/2000/svg">
<path d="M87.4229 65.1703C81.4431 70.0087 66.0841 64.0538 67.548 54.5257C69.1856 43.6827 81.1701 14.9248 88.8868 7.1088C99.1593 -3.3621 112.211 0.161281 114.89 13.3119C117.57 26.6115 97.7449 56.8333 87.4477 65.1703H87.4229Z" fill="#338A49"/>
<path d="M145.559 56.6595C140.944 63.0612 112.832 79.4871 106.901 80.0578C100.872 80.6781 96.3561 69.7357 98.614 63.4582C103.353 50.4812 131.739 31.7973 141.391 34.3282C150.224 36.6358 152.83 46.5856 145.559 56.6595Z" fill="#338A49"/>
<path d="M125.459 50.6553C123.028 53.8313 105.039 68.7188 102.706 69.9842C95.5105 73.9046 81.1937 65.3195 85.1637 54.4764C87.1487 49.0424 90.027 37.3557 100.721 23.3614C128.114 -12.4183 155.631 11.501 125.459 50.6304V50.6553Z" fill="#8EBF56"/>
<path d="M116.354 86.782C119.976 67.3538 102.062 50.1586 84.8419 45.2705C41.1717 32.8642 19.6592 89.1392 10.8756 121.768C7.79884 133.206 1.12427 164.867 0.727266 175.71C0.553578 179.606 1.17388 184.097 4.82133 186.38C7.64996 187.571 22.9593 178.241 26.6316 175.983C54.6698 158.788 110.151 120.081 116.379 86.782H116.354Z" fill="#FF9B21"/>
<path d="M50.8245 64.5752C57.2261 65.9151 66.0097 72.54 69.3842 77.8499C70.3023 79.4379 71.1707 81.3237 69.2105 81.7952C63.3051 81.6711 56.2584 76.5348 51.4199 71.6468C48.9387 68.9174 45.5145 64.2526 50.4026 64.5007L50.8492 64.5752H50.8245Z" fill="#F58216"/>
<path d="M24.7964 113.902C30.6522 115.639 40.8502 121.172 41.5946 125.986C38.4186 131.023 12.0675 112.24 24.2505 113.778L24.7964 113.902Z" fill="#F58216"/>
<path d="M32.6125 90.5024C31.2726 88.5174 31.9178 86.9542 34.8209 87.4752C41.2225 88.7159 50.0558 94.001 53.0581 99.5838C54.1499 102.264 50.0061 102.239 44.4233 99.6086C40.3789 97.7725 34.9698 93.8521 32.9103 90.9242L32.6125 90.5024Z" fill="#F58216"/>
</svg>
