<svg width="170" height="167" viewBox="0 0 170 167" fill="none" xmlns="http://www.w3.org/2000/svg">
<path d="M71.0983 11.9396C138.415 2.16348 176.75 64.5175 146.925 123.125C135.611 145.332 117.746 153.123 93.4296 154.984C-17.0856 163.445 -7.3839 23.3286 71.0983 11.9396ZM92.4371 36.3801L105.935 42.6081C115.364 40.102 100.427 20.4008 87.2016 21.6414C79.8571 22.3362 63.6049 33.7996 63.2079 41.5412C62.662 51.8136 78.542 35.8591 82.0158 36.4049C83.8271 38.4396 74.0758 80.0253 73.6788 87.4691C73.4803 91.3647 72.5374 96.6747 77.1029 98.6101C85.9858 101.588 113.925 79.3554 122.634 73.8719L122.584 82.2089C128.961 92.3076 142.41 66.1055 140.102 60.6964C138.167 54.5181 121.766 53.7985 116.704 55.461C109.98 57.6445 116.356 64.3438 114.421 67.6191C111.915 71.862 89.41 82.1842 84.1249 86.3527L92.4371 36.4049V36.3801Z" fill="white"/>
<path d="M85.5407 166.745C57.5025 166.745 31.7471 156.721 18.3483 140.568C-0.881452 117.393 -5.37253 83.8462 6.66157 52.9794C17.852 24.2464 41.151 4.84292 68.9659 1.09622C74.1518 0.401467 79.3376 0.0292969 84.3249 0.0292969C117.847 0.0292969 146.232 16.4304 160.251 43.8979C175.288 73.3256 171.169 110.222 149.483 140.146C137.424 156.795 113.529 166.745 85.5407 166.745ZM84.8708 11.3687C80.4045 11.3687 75.7894 11.7161 71.1495 12.3861C30.8786 18.2418 9.41577 57.9914 11.9466 93.0516C14.1053 122.951 34.1787 154.909 84.0024 154.909C87.0295 154.909 90.1807 154.785 93.3567 154.537C120.378 152.478 136.258 143.024 146.48 122.901C160.152 96.054 160.028 66.527 146.183 43.9476C133.479 23.2291 111.123 11.3438 84.8212 11.3438L84.8708 11.3687Z" fill="#171717"/>
<path d="M78.9652 99.3043C78.2209 99.3043 77.5261 99.205 76.9554 99.0065C72.5636 97.1456 72.8862 92.4559 73.1343 88.7093L73.2087 87.4191C73.3824 84.3175 75.1441 75.3849 77.005 65.9313C79.263 54.4927 82.3397 38.9601 81.7194 36.8014C80.3795 36.9751 77.7742 38.712 75.2682 40.3744C71.5711 42.8309 67.7748 45.3866 65.2935 45.3866C64.5491 45.3866 63.9536 45.1632 63.507 44.6918C62.8867 44.0466 62.6386 42.9797 62.713 41.4413C63.1348 33.4765 79.5607 21.8394 87.1286 21.1198C87.5504 21.095 87.9474 21.0703 88.3692 21.0703C98.319 21.0703 108.418 31.6156 109.237 37.9677C109.584 40.5482 108.418 42.3346 105.986 42.9797L105.837 43.0294L92.7362 36.9751L84.6969 85.2604C87.1534 83.5732 91.5452 81.1663 96.1603 78.6602C103.852 74.4669 112.561 69.7524 114.001 67.296C114.646 66.2042 114.199 64.5666 113.703 62.8049C112.909 59.9515 111.941 56.4033 116.507 54.9394C118.045 54.4431 120.551 54.1454 123.38 54.1454C130.352 54.1454 139.012 55.8078 140.476 60.4725C141.766 63.5245 138.491 72.0104 134.719 77.7173C132.957 80.3722 129.484 84.8633 126.01 84.8633C124.496 84.8633 123.206 84.0197 122.139 82.3572L122.065 82.258L122.114 74.6157C120.328 75.7819 117.871 77.5189 115.092 79.479C103.951 87.3446 87.1038 99.2546 78.8908 99.2546L78.9652 99.3043Z" fill="#171717"/>
</svg>
