<svg width="212" height="215" viewBox="0 0 212 215" fill="none" xmlns="http://www.w3.org/2000/svg">
<path d="M156.633 170.006C153.433 172.586 141.275 172.611 135.89 174.274C123.931 177.995 106.189 185.538 98.448 195.612C92.8155 202.932 91.575 220.971 79.7642 212.088C76.4641 209.607 76.1663 204.148 73.8091 201.691C64.3803 191.94 45.6716 184.546 32.0495 185.762C24.308 186.457 17.435 191.618 9.19721 190.154C9.81752 165.118 24.0103 145.119 13.7131 119.239C10.7852 111.845 1.5053 108.595 0.810547 100.134C7.78288 89.613 25.4245 79.4399 29.2705 67.6787C32.6202 57.4311 28.1044 35.6953 34.0098 31.0554C55.7952 27.3335 77.531 27.6809 96.9841 15.6716C107.207 9.36918 117.628 -8.86806 129.811 7.50824C137.503 17.8551 141.473 35.0254 158.792 39.4668C165.318 41.1293 174.722 37.6307 179.213 43.0895C184.572 49.5656 168.742 85.4197 190.949 103.086C197.326 108.148 219.881 113.111 208.442 122.763C199.832 130.033 178.741 133.06 168.047 145.491C162.911 151.471 159.76 167.425 156.609 169.981L156.633 170.006ZM118.025 13.9099L89.0192 31.6757C79.6401 36.7871 67.3082 36.3156 57.8546 39.7398C55.4726 40.6082 54.1824 38.7225 54.9019 43.1887L67.3082 59.5898C78.5235 62.617 101.525 56.6619 108.1 46.3895C113.211 38.4247 112.467 22.6191 118 13.8603L118.025 13.9099ZM165.913 53.0889C148.669 50.3348 136.883 37.8788 124.6 26.9613C123.682 36.4645 112.666 55.3469 124.625 60.6568C131.895 63.8576 141.696 59.3169 149.289 65.8922L165.913 53.0889ZM54.2568 95.9154C66.8864 77.6782 56.5643 57.6793 41.8505 44.3301C46.5897 65.2223 35.5728 81.6234 22.2485 96.5358C30.8585 97.9253 46.9619 101.821 54.2816 95.9154H54.2568ZM104.949 63.9568C95.4456 66.5373 87.1335 72.3435 76.6626 70.4826L95.1478 98.7193C98.696 98.8433 103.485 68.5968 104.924 63.9568H104.949ZM109.341 94.4019L133.21 75.9165L116.909 68.3487C113.708 68.4975 111.078 89.9604 109.316 94.4019H109.341ZM168.072 68.299C166.236 66.314 139.389 83.0129 144.426 90.7048C146.113 96.3869 156.311 98.3471 158.817 101.647C159.859 103.012 158.941 106.535 159.586 107.131C160.306 107.801 175.59 108.247 178.965 109.612C170.007 97.0568 166.608 83.8565 168.072 68.299ZM81.0048 100.928C83.0394 99.1411 71.4272 84.3528 70.1617 85.7175L65.7947 100.928H81.0048ZM141.969 105.27L132.193 92.3176L118.025 100.952L141.944 105.245L141.969 105.27ZM26.6155 161.842C30.387 162.835 30.9577 160.279 33.1412 158.592C38.6 154.423 54.7283 138.568 55.1005 132.489C56.1922 114.972 40.734 107.801 25.6231 107.602C18.8741 111.473 25.1268 115.12 26.0449 119.959C28.8239 134.598 29.7915 147.104 26.5907 161.842H26.6155ZM85.3717 111.845H61.4276L65.7947 127.055C67.9037 128.618 83.3867 115.22 85.3717 111.845ZM135.444 116.187L107.157 114.029L125.667 135.715L135.444 116.187ZM181.148 120.53C160.107 119.959 144.426 110.332 138.57 137.799C136.014 149.808 138.719 152.141 147.403 159.634C154.202 141 166.112 132.092 181.148 120.53ZM67.9534 144.449L83.2875 147.848L89.7139 124.872C86.7612 126.658 65.0255 141.347 67.9782 144.449H67.9534ZM113.658 142.265C116.09 139.561 101.326 126.311 100.631 127.055L96.2644 148.816C101.525 145.193 106.983 142.191 113.658 142.265ZM76.6626 187.97C76.3152 176.209 84.9996 162.091 70.5835 155.863C52.0981 147.873 46.3912 162.81 33.1412 171.668C32.2232 176.73 35.3992 174.546 38.6 174.844C44.5303 175.415 47.7559 175.216 53.9342 176.953C62.172 179.286 68.6729 185.663 76.6626 187.945V187.97ZM133.26 164.026C121.251 135.616 82.7416 166.805 87.5552 190.154C100.458 177.822 114.973 166.83 133.26 164.026Z" fill="#141212"/>
<path d="M118.025 13.9102C112.492 22.6442 113.236 38.4746 108.125 46.4394C101.549 56.687 78.5481 62.6421 67.3328 59.6398L54.9266 43.2386C54.207 38.7476 55.4724 40.6333 57.8793 39.7897C67.3328 36.3656 79.6399 36.8122 89.0438 31.7256L118.05 13.9598L118.025 13.9102Z" fill="white"/>
<path d="M26.6151 161.844C29.8159 147.105 28.8235 134.6 26.0693 119.96C25.1512 115.122 18.8985 111.449 25.6475 107.604C40.7832 107.802 56.2165 114.973 55.1247 132.491C54.7525 138.57 38.5996 154.425 33.1657 158.593C30.9822 160.256 30.4115 162.811 26.6399 161.844H26.6151Z" fill="white"/>
<path d="M54.2556 95.9149C46.9359 101.82 30.8574 97.9247 22.2227 96.5352C35.547 81.6229 46.5637 65.2218 41.8245 44.3296C56.5384 57.6788 66.8604 77.6777 54.2308 95.9149H54.2556Z" fill="white"/>
<path d="M76.6615 187.971C68.6719 185.713 62.1709 179.311 53.9331 176.979C47.7548 175.242 44.5292 175.441 38.599 174.87C35.3981 174.547 32.2469 176.756 33.1402 171.694C46.3901 162.811 52.097 147.899 70.5824 155.888C84.9985 162.116 76.3141 176.21 76.6615 187.996V187.971Z" fill="white"/>
<path d="M165.913 53.0881L149.289 65.8914C141.696 59.316 131.895 63.8567 124.625 60.6559C112.641 55.3708 123.658 36.4637 124.6 26.9604C136.907 37.878 148.669 50.3339 165.913 53.0881Z" fill="white"/>
<path d="M181.147 120.531C166.111 132.119 154.201 141.001 147.402 159.636C138.718 152.142 136.013 149.785 138.569 137.801C144.424 110.333 160.081 119.96 181.147 120.531Z" fill="white"/>
<path d="M168.072 68.2993C166.608 83.8816 170.007 97.0571 178.965 109.612C175.565 108.248 160.306 107.801 159.586 107.131C158.941 106.535 159.859 103.037 158.817 101.647C156.311 98.3225 146.113 96.3871 144.426 90.7051C139.414 83.0132 166.236 66.3143 168.072 68.2993Z" fill="white"/>
<path d="M133.26 164.026C114.973 166.854 100.482 177.821 87.5549 190.153C82.7412 166.805 121.226 135.615 133.26 164.026Z" fill="white"/>
<path d="M104.948 63.9565C103.484 68.5965 98.6953 98.8431 95.1719 98.719L76.6865 70.4823C87.1574 72.3432 95.4449 66.5371 104.973 63.9565H104.948Z" fill="white"/>
<path d="M135.443 116.188L125.642 135.716L107.132 114.005L135.443 116.188Z" fill="white"/>
<path d="M110.283 95.2209C111.722 90.6554 112.839 69.0685 116.015 68.6963L132.813 75.0979L110.283 95.2209Z" fill="white"/>
<path d="M67.9535 144.45C65.0256 141.373 86.7366 126.66 89.6893 124.873L83.2628 147.849L67.9286 144.45H67.9535Z" fill="white"/>
<path d="M85.3708 111.845C83.4106 115.219 67.9029 128.618 65.7938 127.055L61.4268 111.845H85.3708Z" fill="white"/>
<path d="M113.658 142.266C106.984 142.166 101.525 145.194 96.2646 148.816L100.632 127.056C101.326 126.311 116.09 139.586 113.658 142.266Z" fill="white"/>
<path d="M141.969 105.27L118.05 100.952L132.218 92.3174L141.969 105.27Z" fill="white"/>
<path d="M81.0041 100.928H65.7939L70.161 85.7182C71.4512 84.3535 83.0387 99.1418 81.0041 100.928Z" fill="white"/>
</svg>
