<svg width="233" height="182" viewBox="0 0 233 182" fill="none" xmlns="http://www.w3.org/2000/svg">
<path d="M195.268 125.881C164.55 132.382 144.203 99.4308 114.652 124.467C105.471 132.208 99.7888 143.374 92.0473 152.232C72.7679 174.365 44.9778 197.589 21.2074 166.673C-6.88043 130.099 -11.3715 57.6216 42.968 44.1236C54.1337 41.3446 67.9047 43.4288 78.847 39.2355C99.2926 31.4196 107.357 14.0756 124.279 5.34153C185.69 -26.3193 288.389 106.229 195.243 125.881H195.268Z" fill="#D0D1DB"/>
<path d="M156.088 102.805C140.382 113.698 126.338 90.7956 139.215 82.533C157.056 71.0944 169.388 93.5995 156.088 102.805Z" fill="#231F20"/>
<path d="M86.1403 128.884C74.131 129.553 70.2603 110.026 80.4334 103.823C100.11 91.8632 109.638 127.618 86.1403 128.884Z" fill="black"/>
<path d="M153.12 34.9646C157.492 33.3948 159.764 28.5778 158.194 24.2056C156.624 19.8333 151.807 17.5615 147.435 19.1313C143.063 20.7011 140.791 25.518 142.361 29.8903C143.931 34.2626 148.748 36.5344 153.12 34.9646Z" fill="black"/>
<path d="M153.135 47.6226C154.748 52.1384 152.416 57.0513 147.924 58.6641C143.458 60.277 138.52 57.9446 136.908 53.4535C135.295 48.9873 137.627 44.0496 142.093 42.4367C146.56 40.8239 151.522 43.1315 153.135 47.6226Z" fill="#231F20"/>
<path d="M172.167 48.9624C180.702 54.1234 175.144 66.3064 165.79 63.6514C154.922 60.5747 161.1 42.2878 172.167 48.9624Z" fill="black"/>
<path d="M166.509 28.2909C179.833 17.5222 187.649 38.4889 173.779 41.0197C167.303 42.2108 162.713 31.3676 166.509 28.2909Z" fill="black"/>
<path d="M57.9536 93.922C55.8445 97.5695 62.668 106.378 51.3535 108.834C41.8999 110.869 40.2622 100.795 38.3021 99.877C36.8877 99.2319 27.7319 103.897 23.0671 96.304C18.9234 89.555 26.6402 84.1459 32.6696 82.5827C26.9627 72.6576 31.5779 63.2536 43.4879 65.1394C49.9888 66.1567 50.7332 73.2035 53.1896 74.4193C56.316 75.9825 63.0154 73.005 66.4147 79.6051C71.8239 90.1257 60.4597 89.5798 57.9536 93.9468V93.922Z" fill="#231F20"/>
</svg>
