<svg width="184" height="185" viewBox="0 0 184 185" fill="none" xmlns="http://www.w3.org/2000/svg">
<path d="M102.82 109.493L105.847 89.1468L82.0517 84.7549L78.8012 105.052L55.2293 101.206L47.8848 144.553L72.3003 148.846L75.7492 128.202L98.5768 132.321L95.5249 152.245L117.906 156.314L124.481 113.637L102.82 109.493Z" fill="#171717"/>
<path d="M121.703 56.7402L118.254 78.1534L140.56 82.2476L144.158 60.9087L121.703 56.7402Z" fill="#171717"/>
<path d="M73.6654 47.9075L51.483 43.8135L47.8604 65.2019L69.9932 69.1968L73.6654 47.9075Z" fill="#171717"/>
<path d="M169.765 23.8887L41.1614 0.26715C32.204 -1.37048 23.6437 4.60934 22.1301 13.5915L0.319833 141.6C-1.16892 150.383 4.66203 158.745 13.4209 160.383L142.049 184.401C151.007 186.064 159.617 180.084 161.13 171.077L182.891 42.6718C184.38 33.8634 178.524 25.5015 169.74 23.8887H169.765ZM51.4833 43.8132L73.6658 47.9072L69.9936 69.1965L47.8856 65.2016L51.4833 43.8132ZM95.5257 152.244L98.5776 132.345L75.75 128.201L72.3011 148.845L47.8856 144.552L55.2301 101.205L78.802 105.051L82.0525 84.7539L105.848 89.1458L102.821 109.492L124.482 113.636L117.907 156.313L95.5257 152.244ZM118.254 78.1538L121.678 56.7406L144.134 60.9091L140.536 82.2479L118.254 78.129V78.1538Z" fill="#349C43"/>
</svg>
