<svg width="180" height="154" viewBox="0 0 180 154" fill="none" xmlns="http://www.w3.org/2000/svg">
<path d="M12.1661 98.5101C2.06739 100.098 -5.17789 85.3594 6.0374 81.2653C10.33 79.9254 17.1286 82.5059 18.3693 87.3444C19.6347 91.6618 17.2279 97.4679 12.6376 98.4356L12.1661 98.5101Z" fill="#FBB040"/>
<path d="M79.6062 16.5782C70.4503 11.6902 76.2317 -2.40339 86.2559 1.12C96.7268 4.84188 90.3004 20.8708 80.0528 16.8015L79.6062 16.5782Z" fill="#FBB040"/>
<path d="M178.709 39.2074C174.888 48.0158 159.976 41.7879 163.053 32.8553C166.7 23.9476 182.382 28.3643 178.883 38.7607L178.709 39.2074Z" fill="#FBB040"/>
<path d="M53.0081 48.4378C54.2488 53.053 51.5194 57.7922 46.9043 59.0328C42.2891 60.2734 37.5251 57.5689 36.2845 52.9289C35.0439 48.289 37.7733 43.5498 42.4132 42.2843C47.0283 41.0437 51.7675 43.7979 53.033 48.413L53.0081 48.4378Z" fill="#FBB040"/>
<path d="M173.673 60.348C175.484 69.9504 178.089 96.9217 177.841 106.4C177.593 116.027 91.6917 149.475 63.058 153.296C53.9022 154.537 18.8916 108.038 22.688 101.264C26.5091 94.4901 53.6789 105.73 53.6789 105.73C53.6789 99.5767 45.59 68.2632 51.6443 64.0451C57.6985 59.8269 76.0598 83.4733 76.0598 83.4733C76.0598 83.4733 77.0772 29.506 88.2428 26.3299C99.4333 23.1539 123.377 73.4242 123.377 73.4242C123.377 73.4242 127.571 44.8649 133.948 43.5499C140.324 42.21 150.498 68.8339 150.498 68.8339C150.498 68.8339 160.075 50.3237 166.08 48.959C172.134 47.5447 172.903 56.105 173.697 60.3728L173.673 60.348Z" fill="#FBB040"/>
<path d="M134.095 40.013C138.567 38.8072 141.215 34.2043 140.009 29.7322C138.803 25.2601 134.2 22.6123 129.728 23.8181C125.256 25.0239 122.608 29.6268 123.814 34.0989C125.02 38.571 129.623 41.2189 134.095 40.013Z" fill="#FBB040"/>
</svg>
