<svg width="146" height="160" viewBox="0 0 146 160" fill="none" xmlns="http://www.w3.org/2000/svg">
<path d="M145.873 146.709C104.064 153.334 57.987 156.957 15.086 159.414C8.56031 113.361 4.04439 63.6122 0.793945 11.5058L135.749 0.265625C139.471 56.9624 146.295 111.277 145.848 146.734L145.873 146.709Z" fill="#E3E3E3"/>
<path d="M31.81 33.5882C37.244 26.3429 50.6427 30.9333 51.7097 39.8907C53.8684 57.8054 20.7188 54.3563 31.81 33.5882Z" fill="#171717"/>
<path d="M101.236 45.6473C88.5067 47.5827 83.5689 25.9462 96.6699 23.4897C109.2 21.1325 116.669 43.2901 101.236 45.6473Z" fill="#171717"/>
<path d="M96.0004 88.8717C83.5941 79.4677 98.9779 59.1214 110.863 71.8255C116.893 78.2767 108.853 98.623 96.0004 88.8717Z" fill="#231F20"/>
<path d="M46.7719 94.9258C30.4701 98.2258 31.14 74.9515 41.2635 71.8748C52.9502 68.3018 63.7437 91.5016 46.7719 94.9258Z" fill="#171717"/>
<path d="M51.5623 136.536C32.5807 138.62 37.3696 116.289 46.2277 115.47C57.0956 111.376 65.8544 133.682 51.5623 136.536Z" fill="#171717"/>
<path d="M104.091 131.574C93.6693 130.755 92.9497 115.496 101.113 112.816C118.829 106.91 122.824 133.038 104.091 131.574Z" fill="#171717"/>
</svg>
