<svg width="185" height="208" viewBox="0 0 185 208" fill="none" xmlns="http://www.w3.org/2000/svg">
<path d="M42.6595 29.7459C45.6867 20.5653 42.8581 -1.29456 57.696 1.16188C73.4272 4.75971 68.6135 20.0194 71.194 30.1182L43.5528 37.1897L42.6348 29.7459H42.6595Z" fill="#44C9BC"/>
<path d="M141.762 159.839C136.551 154.653 130.447 140.807 136.129 136.341C148.362 130.485 155.086 131.031 155.682 131.85C168.882 136.168 153.87 163.164 141.762 159.839Z" fill="#44C9BC"/>
<path d="M129.627 40.7877C126.674 36.7929 120.124 32.1281 115.533 28.828C139.998 4.46208 154.712 20.7888 134.118 46.3705L129.627 40.7877Z" fill="#44C9BC"/>
<path d="M81.5898 21.5084C89.2321 -9.80502 120.049 -5.56209 105.187 25.5281L81.5898 21.5084Z" fill="#44C9BC"/>
<path d="M136.873 58.4546C168.559 43.1452 164.886 83.3912 136.972 78.7017L136.873 58.4546Z" fill="#44C9BC"/>
<path d="M135.656 95.5985C170.171 87.4352 157.02 120.461 133.646 119.592L135.656 95.5985Z" fill="#44C9BC"/>
<path d="M152.331 168.226C173.149 147.433 188.16 156.416 176.052 185.198L152.331 168.226Z" fill="#44C9BC"/>
<path d="M23.1565 195.471C-5.82456 194.627 -1.11017 162.346 5.16741 140.908C18.4421 111.927 40.2772 130.412 38.4907 150.362C39.8306 150.262 41.3689 150.014 42.4359 149.741C45.7111 136.69 44.8427 118.75 56.1076 108.701C21.7422 101.704 9.6585 62.1529 30.774 38.7298C53.7256 9.5254 127.866 9.55019 140.123 50.7639C151.462 82.8217 124.144 133.291 150.346 158.723C166.077 171.03 198.06 184.38 179.079 202.666C174.861 206.314 167.367 207.604 153.249 207.058C114.144 205.421 64.271 201.376 23.1565 195.471ZM69.2582 54.461C68.2161 54.3617 68.3402 56.6445 68.6628 56.7934C68.8116 56.7934 69.0101 56.8182 69.2831 56.7934C69.5808 56.2227 69.6801 55.0565 69.4816 54.4113C69.432 54.4113 69.3575 54.4113 69.2831 54.4113L69.2582 54.461Z" fill="#2282C9"/>
<path d="M79.9282 113.166L83.6996 117.235C77.0251 121.677 66.1572 146.737 81.6154 139.666C85.5358 137.855 90.3246 127.309 93.4014 133.835C97.1729 141.849 78.886 153.338 69.879 145.695C61.7157 138.773 70.7474 116.962 79.9529 113.166H79.9282Z" fill="#171717"/>
<path d="M68.3653 47.1149C79.531 45.7254 79.3325 62.9453 70.6233 64.1115C58.6388 65.6747 57.9441 48.4299 68.3653 47.1149Z" fill="#171717"/>
</svg>
