<svg width="175" height="179" viewBox="0 0 175 179" fill="none" xmlns="http://www.w3.org/2000/svg">
<path d="M145.366 25.7607C128.518 9.23552 90.3814 -2.30243 67.4546 0.848769C-32.7882 14.6446 -18.0247 190.119 96.3364 178.159C175.786 169.847 199.706 79.0581 145.366 25.7855V25.7607ZM88.1235 112.63C75.5683 112.63 65.3952 102.456 65.3952 89.9011C65.3952 77.346 75.5683 67.1729 88.1235 67.1729C100.679 67.1729 110.852 77.346 110.852 89.9011C110.852 102.456 100.679 112.63 88.1235 112.63Z" fill="#CC8D45"/>
<mask id="mask0_272_547" style="mask-type:luminance" maskUnits="userSpaceOnUse" x="0" y="0" width="175" height="179">
<path d="M145.366 25.7607C128.518 9.23552 90.3814 -2.30243 67.4546 0.848769C-32.7882 14.6446 -18.0247 190.119 96.3364 178.159C175.786 169.847 199.706 79.0581 145.366 25.7855V25.7607ZM88.1235 112.63C75.5683 112.63 65.3952 102.456 65.3952 89.9011C65.3952 77.346 75.5683 67.1729 88.1235 67.1729C100.679 67.1729 110.852 77.346 110.852 89.9011C110.852 102.456 100.679 112.63 88.1235 112.63Z" fill="white"/>
</mask>
<g mask="url(#mask0_272_547)">
<path d="M122.241 10.4511C135.763 24.2469 123.01 43.7 125.987 47.943C140.031 55.1634 165.563 53.228 169.236 72.8051C173.181 93.7221 147.723 95.8063 146.234 104.119C143.852 117.195 165.39 137.789 149.534 151.833C136.086 163.768 123.754 149.129 118.047 150.121C113.382 150.915 101.175 164.488 93.7309 168.135C83.6322 173.073 69.2161 177.043 60.085 168.036C49.9367 158.011 55.6436 141.288 50.9044 135.879C39.8628 123.299 -2.74036 133.621 1.97402 97.6425C4.18234 80.7947 28.2257 84.6904 29.5904 78.5121C22.9407 62.7313 13.1149 49.4316 21.0549 31.8643C33.3867 4.5705 52.7901 33.5021 63.6581 30.1027C69.0176 28.4155 74.6996 20.1281 79.8854 16.4558C91.2248 8.49098 110.43 -1.60782 122.265 10.4759L122.241 10.4511Z" fill="#FFABAB"/>
</g>
<path d="M42.9146 100.399C40.5326 103.947 36.9099 107.47 33.4362 109.902C28.7218 113.153 23.0645 107.57 26.2653 102.831C28.6473 99.2823 32.27 95.7589 35.7437 93.3273C40.4581 90.0768 46.1154 95.6596 42.9146 100.399Z" fill="#D12C2C"/>
<path d="M100.628 33.7016C98.1223 37.3739 94.3261 40.9718 90.9516 43.2297C86.4605 46.232 80.9521 41.1207 83.6567 36.4311C85.7409 32.8085 89.7853 29.0617 93.6561 26.5804C98.2216 23.6774 103.68 29.2354 100.628 33.7016Z" fill="#3C9FF0"/>
<path d="M114.275 115.237C118.369 111.986 123.753 117.172 120.627 121.365C116.062 127.444 107.948 134.02 105.169 130.347C103.655 128.338 108.643 119.703 114.275 115.237Z" fill="#3C9FF0"/>
<path d="M146.084 74.8916C158.143 76.7774 147.077 94.8161 139.137 93.6747C130.179 92.0619 139.832 75.3134 145.365 74.9164H146.084V74.8916Z" fill="#D12C2C"/>
<path d="M113.334 50.7975C119.264 44.5447 126.385 59.9038 122.489 64.3204C115.939 70.7965 109.587 56.9014 112.813 51.6164L113.334 50.7975Z" fill="#FEC63F"/>
<path d="M127.972 129.428C125.838 123.87 133.356 119.776 136.879 124.565C140.824 129.9 142.76 137.244 138.393 138.361C133.902 139.502 130.031 134.738 127.972 129.403V129.428Z" fill="#FEC63F"/>
<path d="M77.8506 159.253C71.9452 158.434 71.9949 149.898 77.9002 149.104C84.4756 148.236 91.8449 150.072 90.7283 154.439C89.5869 158.93 83.5327 160.022 77.8506 159.228V159.253Z" fill="#FEC63F"/>
<path d="M73.408 131.439C70.4057 135.309 65.0462 131.687 61.5228 126.501C57.9002 121.166 65.8649 115.385 69.7853 120.521C72.9365 124.665 74.8471 129.627 73.408 131.439Z" fill="#338A49"/>
<path d="M46.5125 46.6787C49.887 47.3983 50.6811 49.6065 52.4924 52.0133C58.0256 60.3503 55.7429 67.9182 49.7382 64.4693C46.5374 62.5835 43.1132 59.3827 42.2448 55.6609C41.6245 51.666 42.6418 47.5967 45.8675 46.7282L46.5125 46.6787Z" fill="#338A49"/>
</svg>
