<svg width="170" height="180" viewBox="0 0 170 180" fill="none" xmlns="http://www.w3.org/2000/svg">
<path d="M143.388 159.614C134.058 172.045 99.5934 179.985 97.6828 178.571C36.1228 184.03 1.01306 146.488 0.764932 104.803L0.715296 101.652C0.070169 91.0073 3.0973 65.0037 10.6403 50.1409C28.9024 1.01204 95.152 -14.6943 131.999 15.9245C145.77 24.8322 156.34 39.0249 164.9 56.4681C173.833 85.8958 173.411 133.238 143.363 159.639L143.388 159.614Z" fill="#3C9FF0"/>
<path d="M58.5027 67.6094C37.6105 62.6221 44.1858 22.8475 10.1182 51.1835C27.7103 1.58315 94.1335 -14.8676 131.377 15.5527C122.097 46.6676 121.502 63.0191 85.1266 52.4738C82.6949 51.779 80.0648 52.2504 78.1046 53.8385C72.3233 58.5528 65.5246 67.9568 58.5027 67.6094Z" fill="#159654"/>
<path d="M0.839083 105.472L0.764648 102.321C31.8052 78.9471 38.0332 98.3505 49.0499 124.304C57.9576 138.869 75.9964 128.275 86.2936 139.688C93.3404 149.688 90.0651 168.297 98.3277 178.446C36.8173 184.425 1.40977 147.157 0.839083 105.472Z" fill="#159654"/>
<path d="M138.375 152.368C113.265 112.395 123.661 124.156 135.918 101.825C137.432 99.0708 136.539 95.5722 133.884 93.8353C127.879 89.9149 120.435 86.1683 121.229 76.665C123.76 64.358 153.659 45.7237 164.577 55.8224C173.758 85.1509 173.733 132.518 143.883 159.117C143.883 159.117 138.921 152.939 138.375 152.343V152.368Z" fill="#159654"/>
</svg>
