<svg width="182" height="180" viewBox="0 0 182 180" fill="none" xmlns="http://www.w3.org/2000/svg">
<path d="M181.069 99.3597C179.357 87.003 166.604 69.8327 166.604 57.9227C166.604 50.5781 172.658 41.5711 173.526 33.3581C176.157 8.79369 153.85 -2.27267 131.99 1.15146C115.242 3.80641 100.429 20.6789 84.5238 21.4481C78.147 21.7211 73.6559 19.0661 66.361 19.8849C33.0377 23.7309 45.1959 55.1684 33.3851 75.1921C27.7527 84.745 17.3065 89.1616 10.5327 97.3746C-13.4611 126.405 7.62956 183.921 48.7936 178.76C63.3834 176.924 71.7702 161.317 86.9058 158.736C99.6099 156.577 112.636 161.093 125.961 160.225C160.103 158.041 186.181 135.462 181.094 99.3597H181.069ZM101.198 48.2705C123.231 25.2196 165.71 66.8551 143.106 90.1293C116.433 117.597 77.5266 72.9839 101.198 48.2705Z" fill="#F5F4F3"/>
<path d="M143.081 90.1294C116.408 117.597 77.502 72.9839 101.173 48.2706C123.207 25.2197 165.686 66.8552 143.081 90.1294Z" fill="#FFCF3D"/>
</svg>
