<svg width="218" height="101" viewBox="0 0 218 101" fill="none" xmlns="http://www.w3.org/2000/svg">
<path d="M215.75 83.8152C208.951 95.1794 171.41 71.3592 162.899 66.5704C127.045 93.1943 -8.38233 134.458 0.475758 52.4769C3.10589 26.8455 44.2203 5.53151 66.9486 1.61112C98.6342 -3.72358 134.439 5.01047 158.234 27.0688C165.703 18.0371 196.694 -4.44315 207.562 2.3803C211.978 5.10969 220.34 73.518 215.75 83.7904V83.8152Z" fill="#75A4D9"/>
<path d="M80.125 66.9677C78.2144 65.3053 78.4872 61.9307 80.2737 59.3998C82.3331 55.802 85.2858 54.5365 83.0527 50.7154C80.8692 47.8371 75.9564 44.6612 74.5173 41.1626C72.83 37.8377 73.9217 34.9098 77.197 33.694C83.549 31.8331 85.0377 34.8602 89.8513 40.2197C95.8311 47.1424 96.4764 55.554 90.9184 62.9233C88.7597 65.8015 84.6904 69.8708 80.6956 67.4144L80.1001 66.9429L80.125 66.9677Z" fill="#171717"/>
<path d="M101.562 29.6726C110.221 28.6801 120.196 44.7835 117.045 57.0905C116.499 59.274 115.109 61.1847 113.075 62.1275C109.899 63.6163 105.805 63.6411 104.39 60.2169C103.844 58.7034 104.39 56.9665 105.11 55.0807C106.921 51.3092 107.864 46.1978 103.869 42.8233C102.331 41.4338 100.172 40.0195 98.4603 38.8533C94.8128 35.5781 97.5916 31.3847 100.718 29.9207L101.537 29.6478L101.562 29.6726Z" fill="#171717"/>
<path d="M35.9904 63.0486C41.2316 62.7721 45.2562 58.2992 44.9797 53.0581C44.7032 47.8169 40.2303 43.7921 34.9891 44.0687C29.7479 44.3452 25.7232 48.8182 25.9997 54.0594C26.2762 59.3006 30.7492 63.3251 35.9904 63.0486Z" fill="#171717"/>
</svg>
