<svg width="197" height="209" viewBox="0 0 197 209" fill="none" xmlns="http://www.w3.org/2000/svg">
<path d="M53.2568 1.34375C118.688 -8.0106 71.767 74.4913 105.661 68.6851C119.159 62.7549 122.012 34.3692 139.307 25.6352C167.147 11.5665 206.425 43.8229 168.784 73.7965C162.854 78.5109 137.52 89.2547 139.853 97.1451C151.093 105.482 184.813 96.4255 193.299 107.343C206.326 138.235 174.169 156.1 147.346 142.056C136.751 137.962 116.058 119.377 115.363 143.942C114.991 157.34 122.434 166.199 117.819 181.756C111.343 203.541 72.9581 220.215 58.5668 197.165C47.947 180.118 63.5789 167.985 69.7076 154.239C87.0268 125.158 32.8114 148.209 17.8494 138.731C5.86493 135.034 -3.21649 124.513 2.78815 111.661C9.68605 96.9218 66.8541 92.8773 70.3279 79.95C74.0498 66.1542 38.6919 48.6366 35.4911 33.2032C32.5632 19.1344 38.3197 4.4205 53.2568 1.34375ZM186.327 113.348C182.803 107.74 114.072 119.402 131.565 88.9569C139.183 75.6822 196.401 55.9314 166.973 36.4288C132.756 13.7749 130.97 73.4491 106.728 79.0319C73.752 86.6246 85.7365 38.4137 80.4266 21.9878C74.8686 4.79271 46.4086 7.39801 44.4981 22.5833C41.8183 43.9221 87.4734 57.4697 78.9131 85.0117C79.4342 101.661 -21.2304 109.75 21.5713 129.426C37.9228 133.967 56.6065 127.615 73.5535 129.848C101.294 133.471 64.9684 173.692 64.9436 185.106C64.8444 210.142 110.078 196.346 110.078 170.144C110.078 155.976 97.7211 135.753 114.594 124.315C131.689 110.048 186.252 167.712 186.376 113.348H186.327Z" fill="#EB5954"/>
<path d="M100.003 94.6874C83.0061 97.3919 87.0752 124.81 108.116 117.887C123.5 112.825 110.821 92.9753 100.003 94.6874ZM105.288 112.155C95.2139 115.48 93.2537 102.33 101.417 101.039C106.603 100.221 112.657 109.724 105.288 112.155Z" fill="#EB5954"/>
</svg>
