<svg width="163" height="280" viewBox="0 0 163 280" fill="none" xmlns="http://www.w3.org/2000/svg">
<path d="M112.346 133.185C112.991 132.937 113.661 133.359 114.43 134.947C117.978 142.366 118.921 160.43 116.613 168.295C112.246 183.059 84.1089 198.045 80.6104 213.33C76.4667 231.394 88.6744 234.917 88.6744 248.241C88.6744 261.194 76.4418 266.33 75.9207 275.213C75.3997 284.12 86.7142 275.064 89.518 272.161C97.7558 263.7 100.609 251.541 98.7237 240.028C97.6567 233.478 91.9746 230.054 90.8828 224.893C86.7887 205.514 123.735 189.088 127.432 168.767C130.881 149.909 125.224 133.93 119.244 116.958C116.093 121.945 114.256 127.578 112.321 133.21L112.346 133.185Z" fill="#8EBF56"/>
<path d="M134.702 75.6693C134.702 75.6693 163.435 47.0853 145.62 29.3939C127.506 11.4048 103.711 33.5624 103.711 33.5624C103.711 33.5624 99.6666 -4.74818 71.1818 0.66096C42.6969 6.0701 49.0988 37.0114 49.0988 37.0114C49.0988 37.0114 14.2619 12.7199 2.4759 50.6583C-9.60783 89.5396 31.2088 85.0237 31.2088 85.0237C31.2088 85.0237 -1.5437 92.0456 13.989 120.779C29.5216 149.512 63.2419 130.232 63.2419 130.232C63.2419 130.232 71.3556 163.01 93.935 158.097C116.539 153.184 117.011 122.987 117.011 122.987C117.011 122.987 152.939 142.117 161.103 113.409C169.092 85.2966 134.727 75.6693 134.727 75.6693H134.702Z" fill="#7C72C4"/>
<path d="M92.2715 102.789C54.8045 107.9 49.7428 52.965 87.3587 54.3297C107.506 55.0741 121.6 98.7938 92.2715 102.789Z" fill="#171717"/>
</svg>
