<svg width="150" height="194" viewBox="0 0 150 194" fill="none" xmlns="http://www.w3.org/2000/svg">
<path d="M134.613 128.661C129.527 98.8362 134.067 55.2901 122.852 28.8896C113.771 7.45149 81.9856 -0.637411 60.5971 0.975407C-1.03729 5.64017 16.1082 106.255 10.0539 147.27C8.96219 154.664 -0.317703 182.802 0.451487 185.556C6.80351 209.5 39.1591 174.763 45.7841 174.986C60.7957 182.976 67.8176 194.985 86.0549 184.762C89.4046 182.852 91.6377 178.336 94.8881 177.318C111.14 172.381 125.978 194.985 140.643 190.767C144.613 189.675 149.873 182.132 149.997 178.038C150.295 170.123 136.846 142.084 134.613 128.686V128.661ZM100.297 164.862C90.2233 164.614 82.8789 176.524 74.1697 177.095C62.4085 177.864 60.5973 168.138 52.9798 165.681C33.6508 159.428 27.001 179.899 10.3022 182.976C33.3034 138.809 10.8481 74.3958 32.9809 32.2889C43.0052 13.1336 53.6248 11.0989 74.2689 12.5877C102.53 14.5727 112.803 23.0338 117.542 50.4516C123.001 81.914 118.932 116.255 127.914 147.593C131.04 158.411 138.36 167.567 138.112 178.931C124.117 179.7 114.292 165.235 100.347 164.887L100.297 164.862Z" fill="#231F20"/>
<path d="M138.064 178.906C124.069 179.675 114.243 165.21 100.299 164.862C90.2249 164.614 82.8805 176.524 74.1713 177.095C62.4101 177.864 60.5988 168.138 52.9814 165.681C33.6524 159.428 27.0026 179.899 10.3037 182.976C33.305 138.809 10.8496 74.3957 32.9824 32.2887C43.0067 13.1334 53.6264 11.0988 74.2705 12.5876C102.532 14.5726 112.804 23.0336 117.544 50.4515C123.002 81.9139 118.933 116.254 127.915 147.593C131.042 158.411 138.361 167.567 138.113 178.931L138.064 178.906Z" fill="white"/>
<path d="M73.4506 63.926C82.656 64.9433 83.2763 87.895 77.2965 88.8627C63.2278 91.1206 64.2451 62.9335 73.4506 63.926Z" fill="#231F20"/>
<path d="M103.3 67.4227C105.782 70.2265 106.526 74.0973 106.129 77.7943C105.31 88.2901 97.023 91.9375 93.5988 84.6178C89.2318 77.8192 92.507 60.5 102.779 66.9264L103.3 67.4227Z" fill="#231F20"/>
</svg>
