<svg width="149" height="166" viewBox="0 0 149 166" fill="none" xmlns="http://www.w3.org/2000/svg">
<path d="M148.796 111.584C148.672 138.505 116.193 168.33 67.0142 164.906C18.2823 161.507 -7.20026 100.889 2.69996 60.8419C14.4115 13.5243 81.8273 -20.7418 122.669 15.5341C167.455 65.5563 135.795 56.4004 84.3085 86.771C74.7557 92.4035 148.896 100.865 148.796 111.608V111.584Z" fill="#FEC63F"/>
<path d="M91.8016 55.5798C99.3522 55.5798 105.473 49.4588 105.473 41.9081C105.473 34.3574 99.3522 28.2363 91.8016 28.2363C84.2509 28.2363 78.1299 34.3574 78.1299 41.9081C78.1299 49.4588 84.2509 55.5798 91.8016 55.5798Z" fill="#171717"/>
</svg>
