<svg width="276" height="153" viewBox="0 0 276 153" fill="none" xmlns="http://www.w3.org/2000/svg">
<path d="M1.27357 19.4699C-0.413685 42.3967 6.33531 147.676 12.4144 151.845C13.8535 152.813 43.2815 152.192 74.6694 151.845L66.8037 3.71387C26.5329 6.12069 -2.79572 10.711 1.24873 19.4946L1.27357 19.4699Z" fill="#D12C2C"/>
<path d="M260.119 0.166992C256.174 0.985807 235.604 1.01061 207.641 1.01061L216.251 148.075C249.4 146.66 273.791 145.048 275.28 143.484C277.438 139.614 274.064 1.65575 260.144 0.166992H260.119Z" fill="#D12C2C"/>
<path d="M66.8047 3.6911L74.6704 151.822C116.48 151.351 173.623 149.887 216.226 148.1L207.616 1.03613C166.874 1.03613 110.425 1.11061 66.8047 3.71593V3.6911Z" fill="white"/>
<path d="M145.958 43.7634C149.382 45.8973 153.426 34.9798 153.823 53.3411C157.992 50.7358 156.305 43.9619 163.302 47.2124L164.542 57.3607L170.845 54.8794L174.641 55.9712L173.922 66.7647C174.74 67.5587 184.715 59.569 186.005 67.385C186.08 72.5212 171.341 84.4312 170.051 89.1704C168.76 93.9096 175.336 93.6119 176.428 97.2097C179.157 106.366 162.954 104.281 157.818 104.331L157.173 113.76C155.089 117.333 144.047 116.936 140.3 115.844L136.802 106.986C129.68 105.82 122.931 110.112 116.331 106.911L120.227 95.7209C119.334 91.8502 83.9261 74.2829 105.463 72.149C107.051 70.7347 95.34 60.3134 102.809 56.666C106.084 55.0531 111.418 60.1893 114.123 60.1893C117.87 50.4131 126.207 60.5863 128.291 61.4299L127.174 46.2199C126.455 41.9025 131.914 45.2274 133.675 45.3514L136.479 33.3669C144.568 30.2157 144.221 42.6965 145.958 43.7882V43.7634Z" fill="#D12C2C"/>
</svg>
