<svg width="161" height="232" viewBox="0 0 161 232" fill="none" xmlns="http://www.w3.org/2000/svg">
<path d="M37.7297 120.088L123.755 99.2949L128.122 102.322C130.826 111.006 123.11 128.177 120.182 137.258C112.812 160.16 103.533 186.834 94.7489 209.19C91.8458 216.584 87.057 236.781 77.5041 229.536C73.5093 226.509 42.4937 147.804 39.268 137.308C38.1018 133.536 34.107 122.867 37.7048 120.088H37.7297Z" fill="#BF864C"/>
<mask id="mask0_272_906" style="mask-type:luminance" maskUnits="userSpaceOnUse" x="36" y="99" width="93" height="133">
<path d="M37.7297 120.088L123.755 99.2949L128.122 102.322C130.826 111.006 123.11 128.177 120.182 137.258C112.812 160.16 103.533 186.834 94.7489 209.19C91.8458 216.584 87.057 236.781 77.5041 229.536C73.5093 226.509 42.4937 147.804 39.268 137.308C38.1018 133.536 34.107 122.867 37.7048 120.088H37.7297Z" fill="white"/>
</mask>
<g mask="url(#mask0_272_906)">
<path d="M69.6379 96.02C72.2184 97.9058 71.1018 105.97 83.9795 107.558C86.3119 112.545 79.4636 122.371 88.6194 127.383C93.309 129.964 93.2595 126.019 94.9219 124.009C98.1972 120.063 105.591 103.786 112.985 106.59C128.071 112.322 88.3466 141.551 104.028 151.6C111.77 153.412 112.365 142.891 117.476 142.643C135.788 141.725 116.931 161.352 116.807 166.885C116.658 173.559 130.95 182.268 126.657 189.787C121.05 199.588 108.767 183.187 107.403 178.026C74.4515 196.039 104.549 207.801 105.988 219.016C108.122 235.963 83.3593 215.443 81.1013 207.801L74.4267 211.2C48.3735 206.312 84.5007 195.37 61.5987 182.814C58.4723 192.64 44.8005 188.745 47.7532 179.068C48.8698 175.396 54.5023 173.212 54.006 169.614C53.8075 168.249 47.7284 158.324 46.314 157.431C42.9395 155.297 33.6845 158.349 33.0394 152.295C32.7664 149.64 36.935 146.588 36.4884 142.618C36.0914 138.971 24.3054 123.587 30.583 120.485C40.0614 115.771 43.2125 133.81 51.0037 133.934C51.8225 127.929 64.2287 121.304 65.0475 116.863C65.7174 113.265 52.7405 96.6899 59.1669 93.4891C59.6632 93.241 67.8762 94.8043 69.6131 96.0697L69.6379 96.02ZM66.0152 160.285C71.9454 148.871 88.9668 142.544 73.7567 129.145L54.9241 147.581L66.0401 160.285H66.0152ZM87.8254 152.965C81.0268 165.669 65.1964 168.572 80.0839 184.105C91.8203 175.42 105.765 164.577 87.8254 152.965Z" fill="#A3682E"/>
</g>
<path d="M29.5905 119.567C-9.91112 127.457 -8.84415 75.4997 27.6055 74.7306C21.3279 47.3375 26.0422 22.8475 53.0879 8.10885C96.9566 -15.7857 154.026 19.2496 135.565 66.0213C155.465 71.9763 168.268 95.3002 156.06 112.743C145.986 127.135 136.26 118.029 128.493 119.865C126.012 120.46 123.457 124.43 120.206 125.82C109.487 130.435 95.6167 132.172 86.6097 123.785C70.5064 142.122 32.3695 153.287 29.5905 119.592V119.567Z" fill="#FF8282"/>
</svg>
