<svg width="101" height="253" viewBox="0 0 101 253" fill="none" xmlns="http://www.w3.org/2000/svg">
<path d="M72.4961 169.761C78.7985 181.547 78.873 242.537 67.0126 251.345C43.3662 263.553 49.619 188.147 47.1377 175.94C48.6761 166.188 69.1713 163.608 72.4714 169.786L72.4961 169.761Z" fill="#B99470"/>
<path d="M36.8654 3.02064C101.577 -20.9979 116.663 146.934 84.7536 171.101C68.9232 172.813 25.8238 186.659 15.3032 168.719C7.9339 117.059 -23.0818 33.6393 36.8654 2.9958V3.02064Z" fill="#543310"/>
<mask id="mask0_272_840" style="mask-type:luminance" maskUnits="userSpaceOnUse" x="0" y="0" width="101" height="178">
<path d="M36.8654 3.02064C101.577 -20.9979 116.663 146.934 84.7536 171.101C68.9232 172.813 25.8238 186.659 15.3032 168.719C7.9339 117.059 -23.0818 33.6393 36.8654 2.9958V3.02064Z" fill="white"/>
</mask>
<g mask="url(#mask0_272_840)">
<path d="M9.5982 84.9507C-19.7551 100.409 9.69749 -22.4132 58.9504 0.0173333C96.5663 9.49574 108.948 93.7841 58.9753 81.6011C55.0053 87.6305 59.9181 124.949 39.9688 126.71C17.3149 130.78 29.3738 73.8595 9.57337 84.9507H9.5982Z" fill="#994D1C"/>
</g>
</svg>
