<svg width="242" height="260" viewBox="0 0 242 260" fill="none" xmlns="http://www.w3.org/2000/svg">
<path d="M235.356 255.052C188.262 230.438 149.554 198.232 116.305 156.571C95.6116 130.642 74.7441 103.448 58.2189 71.4395C56.755 72.1838 38.2695 85.0864 38.2695 85.0864C38.2695 85.0864 67.5982 130.344 72.9081 137.639C96.6041 170.144 153.797 222.449 188.808 240.587C202.479 247.683 226.771 260.04 238.73 259.618C243.271 259.469 241.956 258.08 235.356 255.052Z" fill="#E3E3E3"/>
<mask id="mask0_272_653" style="mask-type:luminance" maskUnits="userSpaceOnUse" x="38" y="71" width="204" height="189">
<path d="M235.356 255.052C188.262 230.438 149.554 198.232 116.305 156.571C95.6116 130.642 74.7441 103.448 58.2189 71.4395C56.755 72.1838 38.2695 85.0864 38.2695 85.0864C38.2695 85.0864 67.5982 130.344 72.9081 137.639C96.6041 170.144 153.797 222.449 188.808 240.587C202.479 247.683 226.771 260.04 238.73 259.618C243.271 259.469 241.956 258.08 235.356 255.052Z" fill="white"/>
</mask>
<g mask="url(#mask0_272_653)">
<path d="M34.6233 68.4619C35.318 71.8364 37.973 74.02 39.5858 76.8982L45.0199 85.0119L55.9869 101.19C84.9431 144.339 120.524 183.84 162.483 214.682C185.831 231.853 210.569 250.313 241.808 259.717C247.292 261.057 231.462 258.65 223.025 254.68C176.105 232.547 137 204.162 102.337 164.214C85.1914 144.463 68.9142 124.017 54.3988 102.306C51.1484 97.443 41.1241 82.878 37.9481 78.0147C35.9135 75.4094 34.921 72.1342 32.1172 70.1492L34.6481 68.4868L34.6233 68.4619Z" fill="#231F20"/>
</g>
<path d="M69.1626 71.3891L63.0336 63.5236L53.9028 67.0469L25.9141 21.9874C25.9141 21.9874 40.3799 14.3946 29.0405 3.4523C19.5373 -5.72836 -0.585792 10.648 1.02703 18.4392C0.7789 21.1934 36.7324 76.5997 36.7324 76.5997L27.9738 83.1008L32.9856 92.6535L69.2122 71.3891H69.1626Z" fill="black"/>
<path d="M29.6363 11.8638C27.428 18.588 9.93528 24.7663 8.04952 21.888C6.75927 19.9278 7.42912 18.3399 9.51338 17.7444C13.8308 16.4789 28.1972 8.41486 29.6363 11.8638Z" fill="white"/>
<path d="M29.0406 8.58818C20.8276 9.08443 13.9049 13.9973 6.36187 16.7515C6.213 16.156 8.09892 12.8063 8.39667 12.4341C13.1607 6.65277 22.366 2.40985 29.0406 8.58818Z" fill="white"/>
<path d="M40.5539 60.8691C39.9584 63.276 37.0057 70.0249 34.0281 66.2286C31.1003 62.4819 37.9734 60.9436 40.5539 60.8691Z" fill="#E3E3E3"/>
<path d="M21.6225 27.7188L15.7916 35.6091C14.8736 36.3287 13.4592 34.9392 13.2607 34.0459C12.3426 30.0263 18.6202 28.2646 21.6225 27.7188Z" fill="#E3E3E3"/>
<path d="M24.8727 36.1299C25.1705 36.5269 20.6048 43.2513 19.8108 43.4001C18.1236 42.9535 16.7341 40.621 17.9499 39.0826C18.3469 38.5864 22.5899 36.1301 23.2598 35.9564C23.9298 35.7827 24.2769 35.9564 24.8972 36.1052L24.8727 36.1299Z" fill="#E3E3E3"/>
<path d="M46.931 67.569C46.807 67.7427 46.9065 68.0652 46.8817 68.2885L46.5094 67.7674C45.5417 68.3381 44.177 68.3878 43.0356 68.487C42.7378 68.5118 42.2416 68.7103 42.4401 68.1645C42.6634 67.5441 43.8295 66.3779 44.2265 65.5095C44.5243 64.8396 45.244 63.4997 45.5665 63.2268C45.9635 62.9042 46.9807 60.9688 47.2536 60.9688C48.2709 62.5071 49.8591 65.0628 48.3207 66.7253C47.8989 67.1719 46.9807 67.4697 46.931 67.569Z" fill="#E3E3E3"/>
<path d="M37.4775 58.637C37.7257 56.3294 40.7776 51.2925 43.0852 54.4685C45.4424 57.7438 39.6362 58.4633 37.4775 58.637Z" fill="#E3E3E3"/>
</svg>
