<svg width="154" height="297" viewBox="0 0 154 297" fill="none" xmlns="http://www.w3.org/2000/svg">
<path d="M152.992 265.41C149.171 265.658 146.342 266.055 143.191 263.251C137.435 258.165 126.864 220.325 123.688 220.028L65.9743 243.699C64.9322 252.656 82.7476 291.736 76.8174 295.88C68.9767 301.338 64.1134 282.803 62.6991 278.461C47.5386 231.392 43.3204 181.717 30.9638 133.953C22.5523 101.448 9.60014 70.3333 0.568359 38.0273L6.07675 32.6182C12.6521 34.0325 19.9222 64.701 22.4531 71.7725L74.6587 52.1209L68.0338 3.61232C83.095 -7.77666 78.331 15.969 79.5964 24.4053C88.0575 80.308 114.111 155.912 133.365 209.979C138.129 223.353 148.724 242.88 151.975 254.492C152.992 258.164 153.389 261.638 152.992 265.435V265.41ZM76.7926 63.0633C74.7331 61.5249 30.6412 79.7373 28.8547 81.5982C27.7133 82.814 26.5223 83.5336 27.093 85.469L33.2217 101.349L83.2935 91.2503L76.7926 63.0633ZM87.5612 102.317C79.6212 104.798 41.6084 108.619 38.5564 113.036L44.2137 143.53L96.4193 137.03L87.5612 102.317ZM109.471 176.184L99.372 148.195L48.7047 154.597C48.9281 160.552 52.2281 190.054 56.3967 191.295L109.471 176.184ZM120.239 210.897C121.728 209.185 116.766 186.431 110.563 186.977L57.0666 203.726L64.8329 234.89L120.239 210.897Z" fill="#593700"/>
</svg>
