<svg width="208" height="120" viewBox="0 0 208 120" fill="none" xmlns="http://www.w3.org/2000/svg">
<path d="M207.633 6.01941L206.467 114.475L187.684 116.386C187.684 116.386 75.8783 120.008 15.286 118.917C9.75275 118.743 2.50747 119.735 1.24203 112.788C-1.11517 100.009 1.73829 22.8672 1.91198 2.47123L201.728 0.138844C204.978 0.114032 207.683 2.76897 207.658 6.01941H207.633Z" fill="#D12C2C"/>
<path d="M31.7101 41.923C29.6506 32.2957 37.3922 23.5369 47.2428 23.7105C51.3865 23.785 55.1331 25.5219 57.8377 30.3851C70.6906 53.2871 35.8041 60.979 31.7101 41.923Z" fill="#962828"/>
<path d="M118.778 87.0055C118.679 105.168 91.0129 105.193 90.9385 87.0055C91.0129 68.7683 118.704 68.7931 118.778 87.0055Z" fill="#962828"/>
<path d="M111.782 48.6459C91.7578 57.231 87.9366 27.977 98.9038 24.6273C118.059 18.7715 125.428 42.7901 111.782 48.6459Z" fill="#962828"/>
<path d="M173.614 50.6563C155.451 60.9784 148.975 28.8957 165.326 26.34C178.899 24.2062 187.013 43.0637 173.614 50.6563Z" fill="#962828"/>
<path d="M172.895 98.471C157.461 101.622 150.464 77.8766 167.312 75.1472C186.517 72.0208 185.599 95.8657 172.895 98.471Z" fill="#962828"/>
<path d="M60.6431 84.526C59.0551 102.887 31.0417 103.781 32.5553 85.32C32.853 81.4492 37.3441 72.74 41.3389 71.6234C48.8819 69.4896 61.3875 75.7175 60.6431 84.526Z" fill="#962828"/>
</svg>
