<svg width="109" height="177" viewBox="0 0 109 177" fill="none" xmlns="http://www.w3.org/2000/svg">
<path d="M104.706 83.4149C115.648 92.1489 101.803 102.992 93.168 111.751C75.154 128.127 65.4771 138.276 48.3813 151.153C38.8781 158.225 26.447 167.43 18.631 172.393C12.7753 176.859 1.80807 179.291 0.691507 169.39C0.344131 164.8 5.82772 156.711 9.62405 148.995C16.6708 135.224 32.005 114.455 37.6623 102.421C39.3743 97.5333 30.5907 96.2678 26.7447 94.9031C22.4769 93.5632 17.7129 91.8264 14.8099 88.303C10.4429 82.7946 13.3707 76.12 16.5467 66.9642C21.9063 52.3248 29.6478 34.6334 34.7344 21.8053C39.5728 9.57269 47.3888 9.15086 57.2642 6.22298C67.7351 3.09659 101.654 -5.98481 102.398 9.34937C101.579 25.155 85.6994 56.4684 80.7865 74.9042C81.506 86.442 97.932 78.7998 104.16 83.0923L104.731 83.3901L104.706 83.4149Z" fill="#FEC63F"/>
</svg>
