<svg width="179" height="209" viewBox="0 0 179 209" fill="none" xmlns="http://www.w3.org/2000/svg">
<path d="M152.963 62.5395C151.921 62.8621 50.7601 110.353 29.5206 119.385C27.8085 116.11 0.390646 72.5141 0.390646 72.5141C0.0432698 65.1696 4.60882 61.2492 10.6631 58.3214C10.6631 58.3214 28.3544 76.6578 28.2055 74.921C23.6896 68.693 14.7323 49.9595 14.7323 49.9595L26.0468 39.5879C36.0711 44.2526 56.9385 71.8938 56.9385 71.8938L42.2991 46.7339C47.6834 41.8706 49.5195 33.1118 58.7002 32.7644L66.4417 47.9497L65.747 24.0552C68.7245 19.44 75.7465 18.9686 82.9917 18.7205L89.8896 54.9717C89.6167 46.0143 90.5347 38.3969 87.855 27.8763L101.204 19.6634C106.564 27.5538 109.566 39.8856 113.362 45.4684C115.074 44.8481 110.261 17.2069 104.653 7.95183C103.933 6.73601 114.454 -0.881447 117.804 1.20281C123.213 3.63444 144.105 44.0293 148.05 51.8949C150.234 56.2619 152.442 61.4477 152.963 62.5395Z" fill="#FFAE36"/>
<path d="M178.445 173.278C176.262 181.714 141.996 193.177 132.393 195.932C119.813 199.579 71.2055 211.315 61.6775 207.717C51.0825 203.698 49.6434 171.888 46.0455 160.574C42.1251 148.341 31.3317 125.166 23.6895 109.633C34.5574 106.706 45.5741 99.1625 55.2014 93.7781C64.1835 89.9074 73.1161 86.0366 81.999 81.9177C87.7555 79.238 93.3879 76.5086 99.0204 73.7296C107.978 69.7596 116.96 65.7896 125.917 61.8196C130.532 60.0579 135.123 58.1969 138.993 55.9886C141.971 54.6239 144.998 53.2592 148.05 51.8945C154.898 63.5813 163.359 97.376 167.081 112.214C169.86 123.231 180.555 165.214 178.445 173.278Z" fill="#F1EFEC"/>
<mask id="mask0_272_744" style="mask-type:luminance" maskUnits="userSpaceOnUse" x="23" y="51" width="156" height="158">
<path d="M178.445 173.278C176.262 181.714 141.996 193.177 132.393 195.932C119.813 199.579 71.2055 211.315 61.6775 207.717C51.0825 203.698 49.6434 171.888 46.0455 160.574C42.1251 148.341 31.3317 125.166 23.6895 109.633C34.5574 106.706 45.5741 99.1625 55.2014 93.7781C64.1835 89.9074 73.1161 86.0366 81.999 81.9177C87.7555 79.238 93.3879 76.5086 99.0204 73.7296C107.978 69.7596 116.96 65.7896 125.917 61.8196C130.532 60.0579 135.123 58.1969 138.993 55.9886C141.971 54.6239 144.998 53.2592 148.05 51.8945C154.898 63.5813 163.359 97.376 167.081 112.214C169.86 123.231 180.555 165.214 178.445 173.278Z" fill="white"/>
</mask>
<g mask="url(#mask0_272_744)">
<path d="M84.5538 213.052C84.5538 213.052 72.5445 140.351 59.8652 121.37C59.8652 121.37 106.687 101.048 123.187 84.2251C123.187 84.2251 150.977 115.439 164.252 201.068L84.5538 213.052Z" fill="#D12C2C"/>
</g>
<path d="M144.256 151.79C142.742 155.81 140.584 157.299 136.936 153.08C132.892 148.713 125.473 128.094 118.674 129.583C108.054 131.915 122.297 160.772 111.702 160.847C105.325 160.896 100.263 138.094 92.2983 135.513C83.9861 142.783 101.231 172.533 94.8788 174.37C85.2019 177.173 79.9664 143.503 81.1574 136.431C84.4823 116.383 100.759 131.047 103.439 130.923C107.012 130.774 108.029 123.727 111.478 121.792C128.673 112.189 142.519 137.548 144.305 151.765L144.256 151.79Z" fill="#FFAE36"/>
</svg>
