<svg width="150" height="187" viewBox="0 0 150 187" fill="none" xmlns="http://www.w3.org/2000/svg">
<path d="M129.518 177.286C124.133 182.596 50.4896 189.196 41.9293 185.251C37.5871 183.217 36.6194 178.403 35.3044 174.185C33.3442 168.031 22.2281 121.657 24.089 119.597C32.7486 117.389 37.3637 109.523 46.1721 105.429C70.8358 93.9906 114.779 99.0523 136.614 114.932C127.756 125.254 135.373 171.604 129.542 177.262L129.518 177.286Z" fill="#E5BC95"/>
<path d="M129.518 177.287C124.109 182.572 50.4901 189.197 41.9297 185.227C37.5627 183.193 36.6199 178.379 35.28 174.186C33.3198 168.007 22.1789 121.633 24.0398 119.573C32.7242 117.365 37.3394 109.524 46.1231 105.455C70.7619 94.0163 114.73 99.0533 136.565 114.933C127.707 125.28 135.299 171.605 129.493 177.287H129.518ZM85.7487 108.755L69.7942 109.673C75.3274 128.134 81.8531 176.022 81.8531 176.022L91.8774 174.26L85.7487 108.755ZM62.7227 110.517C61.482 109.251 46.7186 113.569 46.7682 115.082L62.1272 177.908L73.3424 177.709L62.7227 110.541V110.517ZM110.487 112.303L92.7955 110.541L100.909 172.722L109.842 172.623L110.487 112.328V112.303ZM122.868 170.638C122.868 170.638 125.623 123.196 123.861 119.424L117.583 115.827L117.037 171.01L122.893 170.613L122.868 170.638ZM57.4376 177.684L39.5477 120.367L32.0544 124.437L45.3787 178.528C45.3787 178.528 51.1848 177.56 57.4376 177.659V177.684Z" fill="#A1631D"/>
<path d="M134.456 88.6807C134.927 89.3506 143.488 90.6905 146.862 96.3477C155.497 110.838 145.15 124.138 129.866 125.949C123.092 126.743 114.159 121.359 110.81 122.078C109.619 122.327 108.676 127.363 105.525 129.448C93.1183 137.71 82.4489 125.329 79.1737 126.123C77.7842 126.445 73.0945 132.45 69.199 134.038C55.6265 139.546 49.4729 133.095 41.5577 123.021C4.06591 159.669 -20.0022 96.9433 24.2883 88.507C19.425 33.8697 112.646 21.0664 131.975 67.8381C134.828 74.736 133.811 87.7874 134.456 88.6559V88.6807Z" fill="#543310"/>
<path d="M89.7188 0.943275L95.376 2.60571L89.3714 19.4535C89.0489 23.0761 94.9542 24.8874 95.8723 28.3612C102.919 54.9354 54.1871 56.4986 65.725 25.7807C68.6528 17.9895 77.8584 20.0241 82.2999 16.7241C86.7413 13.424 89.7188 0.918457 89.7188 0.918457V0.943275Z" fill="#D12C2C"/>
</svg>
