<svg width="144" height="287" viewBox="0 0 144 287" fill="none" xmlns="http://www.w3.org/2000/svg">
<path d="M130.652 208.665C138.071 222.411 147.773 254.022 140.875 268.438C128.617 294.02 100.927 292.184 94.3017 264.542C88.8926 241.789 96.5844 226.48 83.6571 201.667C69.9605 175.465 57.9265 190.403 44.1059 176.061C41.575 173.431 39.1185 169.61 36.7861 165.069C48.9195 164.97 113.184 151.943 133.307 148.866C132.017 154.3 129.933 159.536 127.005 163.903C124.449 167.749 120.479 170.007 118.32 174.026C110.504 188.69 124.474 197.251 130.677 208.665H130.652Z" fill="#474E93"/>
<path d="M134.299 128.618C134.448 130.678 134.597 132.663 134.696 134.524C134.895 139.337 134.398 144.523 133.158 149.56C122.538 153.133 39.4406 169.013 38.9939 169.162C35.7435 163.579 32.6171 156.433 29.7637 148.567C56.4372 144.746 131.942 128.841 134.299 128.618Z" fill="#B2B8C2"/>
<path d="M134.4 129.76C128.891 131.05 49.5902 147.054 30.7822 151.124C30.7574 151.124 30.7326 151.123 30.7078 151.173C22.6189 130.206 16.2669 102.962 12.7683 88.7695C8.12836 70.0608 4.87791 50.98 0.0146484 32.3209C0.237962 28.6238 1.50341 24.6785 5.27492 23.3883C6.86293 22.8424 20.7828 19.6664 21.8745 19.6912C24.8024 19.7657 27.3829 21.4281 28.0777 24.356L30.1371 24.0583C43.263 10.7091 47.6796 15.0018 58.4483 25.3734C59.54 26.4404 58.7956 28.0035 61.9965 26.6884C58.9693 15.6468 63.7085 10.2625 74.9486 10.0888C82.2435 9.96471 82.5909 15.9694 88.5211 18.3762L88.4467 5.59771C100.059 -2.24307 106.535 -1.07688 111.746 11.9497C116.088 22.7432 118.941 40.3106 121.348 52.1958C125.839 74.3782 132.812 106.833 134.4 129.809V129.76Z" fill="#A1631D"/>
</svg>
