<svg width="181" height="193" viewBox="0 0 181 193" fill="none" xmlns="http://www.w3.org/2000/svg">
<path d="M143.554 6.65274C121.843 -7.68892 94.6488 6.35499 84.5004 28.2893C80.853 36.1053 79.3396 44.6408 77.2554 52.7049C66.8093 107.094 -1.45012 71.5624 0.0386386 131.46C3.56202 169.448 43.3116 196.345 79.6124 191.779C109.164 189 136.756 172.277 156.73 150.863L157.127 150.417C191.319 112.726 189.309 32.9044 143.554 6.65274ZM96.0135 89.7501C78.9425 80.1476 99.4626 40.3482 117.849 52.9034L118.295 53.2508C134.622 66.0292 114.797 97.2435 95.9887 89.7501H96.0135Z" fill="#E5BC95"/>
<path d="M171.868 90.3451C173.778 104.811 153.854 110.592 150.057 95.4317C146.732 79.7749 169.362 73.6959 171.868 90.3451Z" fill="#2B3990"/>
<path d="M46.5646 167.686C27.4093 178.331 21.752 148.928 32.8929 142.278C45.3984 134.809 63.3131 158.406 46.5646 167.686Z" fill="#6C3E87"/>
<path d="M126.584 166.669C111.523 177.264 100.456 150.789 115.989 144.065C129.785 138.085 139.213 157.811 126.584 166.669Z" fill="#FFCF3D"/>
<path d="M158.766 124.437C161.049 130.492 157.997 137.265 151.918 139.548C145.838 141.831 139.09 138.754 136.807 132.7C134.524 126.621 137.601 119.847 143.655 117.564C149.709 115.282 156.483 118.358 158.766 124.437Z" fill="#D12C2C"/>
<path d="M130.652 36.7255C120.007 38.2887 114.152 22.6568 121.918 17.5702C140.652 5.26315 150.155 33.8968 130.652 36.7255Z" fill="#338A49"/>
<path d="M69.862 176.27C63.2371 166.99 73.2864 151.259 84.6505 156.172C92.2432 159.249 96.9824 170.365 91.4988 176.866C86.3378 183.019 75.0479 183.342 70.1846 176.717L69.862 176.27Z" fill="#994D1C"/>
<path d="M145.318 47.0478C154.97 31.6391 176.805 52.8291 162.016 63.3744C152.315 70.4212 140.008 56.7247 145.318 47.0478Z" fill="#F58216"/>
</svg>
