<svg width="207" height="289" viewBox="0 0 207 289" fill="none" xmlns="http://www.w3.org/2000/svg">
<path d="M84.6078 239.568C75.5264 269.74 64.2367 288.523 64.2367 288.523C64.2367 288.523 40.6151 281.998 32.8984 279.665C70.8121 215.277 86.6673 116.473 88.95 104.489C90.1907 103.447 91.3817 102.256 92.4734 100.866C92.6967 100.618 92.8952 100.271 93.1186 100.022C93.2674 99.8735 93.4411 99.6254 93.6148 99.3276C98.0314 93.3726 103.714 86.9462 106.989 79.6265C106.641 164.783 102.572 180.266 84.6078 239.568Z" fill="#AB6D33"/>
<path d="M186.86 39.4802C193.733 54.9881 179.912 48.1646 171.972 46.8744C165.868 55.7325 151.651 47.6684 143.562 48.7601C141.602 49.0082 140.609 51.4399 138.624 52.2339C136.168 53.9211 126.714 51.8865 126.59 55.2858C139.815 61.092 150.807 71.9599 156.564 85.185C162.221 98.0875 167.506 140.244 160.484 142.552C153.462 144.859 146.713 123.793 146.837 119.923C146.837 119.923 145.324 123.719 141.304 124.091C133.612 124.811 132.074 100.594 131.106 97.0454C124.431 110.543 118.104 104.514 118.005 92.331C113.911 93.2243 115.127 100.544 108.651 97.3431C106.963 95.4326 106.517 93.1002 105.648 90.8174C105.648 90.8174 105.648 90.7926 105.648 90.7678C100.363 78.2871 98.4774 107.392 93.7382 106.995C82.7214 106.102 80.2649 133.644 73.5159 131.51C70.9602 130.716 72.3001 123.719 70.2903 122.975C68.9008 122.478 64.236 138.78 59.9434 142.055C59.1246 142.676 57.7103 142.328 57.2637 141.733C56.8171 141.137 57.6855 137.986 55.7005 137.242C53.1448 136.473 45.8747 154.536 40.6145 151.782C26.0743 141.063 54.3358 96.8221 60.6382 83.8451C54.5839 88.6835 40.5152 113.571 37.364 93.4228C32.0045 95.2837 20.8388 113.099 17.6876 113.794C10.6409 115.332 11.8319 106.598 13.2958 102.008C9.77243 100.867 8.1348 105.903 4.61142 106.573C0.591779 107.268 0.318842 105.209 0.815093 101.884C4.31367 77.5923 35.4783 52.7798 59.9931 51.8121C55.2787 49.6286 47.1154 46.7999 55.6509 40.9193C58.9509 38.6614 37.7858 43.3014 39.5227 36.0561L47.6116 28.8356C37.7362 24.0716 3.96629 36.3042 23.5434 16.2308C-38.6369 27.0987 57.7848 -39.0516 99.8917 38.4133C146.068 -29.1762 248.693 46.3285 186.86 39.5298V39.4802Z" fill="#349C43"/>
</svg>
