<svg width="208" height="150" viewBox="0 0 208 150" fill="none" xmlns="http://www.w3.org/2000/svg">
<path d="M206.845 108.424C210.79 159.364 207.316 149.637 154.242 147.851C126.328 146.908 89.0845 145.692 62.2125 140.134C41.097 135.767 56.8777 114.155 53.3295 108.697C43.603 102.766 -9.61993 95.8932 2.33973 81.5267C14.4235 68.8971 60.8725 40.7845 68.1674 44.5312C74.7924 47.9306 86.1813 54.2329 92.3348 58.6248L124.815 7.58527C167.591 2.39944 191.809 -3.2578 194.935 3.11904C201.287 15.972 201.758 42.6207 206.845 108.424ZM191.213 8.80106L131.167 14.6816C219.226 194.995 174.564 104.181 63.8501 50.4862L8.09627 86.5141C71.3435 108.498 137.419 119.961 201.485 139.315L191.213 8.8259V8.80106ZM166.326 107.059L124.591 20.587L98.9848 62.3466L166.326 107.059ZM176.574 139.315L61.6914 111.426C58.4906 122.716 52.3618 131.35 67.4231 133.435C101.391 136.338 143.796 143.012 176.574 139.315Z" fill="#171717"/>
<path d="M191.211 8.8012L201.484 139.29C137.418 119.937 71.342 108.498 8.09473 86.4894L63.8485 50.4615C172.404 103.585 216.744 187.278 131.165 14.6569L191.211 8.77637V8.8012Z" fill="white"/>
<path d="M166.325 107.06L98.959 62.3479L124.566 20.5635L166.325 107.06Z" fill="white"/>
<path d="M190.196 141.076C190.841 145.145 95.4118 136.61 67.4232 133.434C52.3123 131.721 58.4907 122.715 61.6915 111.425L190.196 141.076Z" fill="white"/>
</svg>
