<svg width="191" height="152" viewBox="0 0 191 152" fill="none" xmlns="http://www.w3.org/2000/svg">
<path d="M174.001 114.479C196.654 116.117 202.51 167.851 151.967 136.389C122.539 140.756 73.9563 159.886 42.6428 140.508C36.9359 140.185 13.2647 162.69 4.1833 144.205C-3.80635 127.903 14.5798 122.99 16.1678 117.73C16.6144 116.241 13.9595 94.9766 14.1332 88.0043C14.7535 62.5217 22.9664 45.153 22.9664 45.153C6.83827 40.0912 -6.31245 28.33 4.92765 11.1597C14.7534 -3.87669 33.5614 14.7576 38.9457 13.1696C63.4109 5.87465 95.7913 0.0685134 121.224 4.08815C133.06 5.94909 139.387 12.1522 140.429 12.0778C145.243 11.7056 163.505 -11.3453 177.4 8.1326C188.367 23.4916 169.981 31.2083 169.509 39.1979C174.819 61.5789 181.742 90.7585 174.025 114.504L174.001 114.479Z" fill="#ABDBFF"/>
<path d="M90.3817 135.942C85.8162 140.309 67.5293 121.104 68.0255 118.399C70.6557 103.934 93.2599 133.188 90.3817 135.942Z" fill="#F5F4F3"/>
<path d="M97.6034 112.171C104.402 111.873 112.714 119.838 115.965 125.768C117.23 128.225 118.123 131.575 114.997 132.294C110.332 133.436 97.6778 124.329 95.395 117.878C94.4521 115.769 94.328 112.816 97.0574 112.27L97.6034 112.196V112.171Z" fill="#F5F4F3"/>
<path d="M124.55 111.799C128.842 109.169 154.722 118.697 143.829 124.007C138.693 125.744 127.949 122.295 123.781 117.184C122.267 115.496 121.498 112.941 124.029 111.973L124.55 111.799Z" fill="#F5F4F3"/>
</svg>
