<svg width="168" height="170" viewBox="0 0 168 170" fill="none" xmlns="http://www.w3.org/2000/svg">
<path d="M97.8611 167.501C49.3277 177.625 12.4066 143.358 2.63041 97.728C-7.89012 48.3758 33.3484 1.85226 82.6758 0.710879C189.246 -1.77038 196.59 146.907 97.8611 167.526V167.501Z" fill="#FFCF3D"/>
<mask id="mask0_272_697" style="mask-type:luminance" maskUnits="userSpaceOnUse" x="0" y="0" width="168" height="170">
<path d="M97.8611 167.501C49.3277 177.625 12.4066 143.358 2.63041 97.728C-7.89012 48.3758 33.3484 1.85226 82.6758 0.710879C189.246 -1.77038 196.59 146.907 97.8611 167.526V167.501Z" fill="white"/>
</mask>
<g mask="url(#mask0_272_697)">
<path d="M171.578 52.8178C164.333 22.1991 139.073 -3.40746 96.3462 -2.41495C91.0363 -2.3157 85.8009 -1.59614 80.764 -0.355511C81.7317 1.10843 93.4679 15.9712 90.0934 17.8073C85.3542 20.4126 55.6288 23.1916 58.8544 34.0099C60.5665 39.816 86.9919 44.4064 91.5574 49.1704C96.644 59.4676 92.3762 81.0794 96.9914 89.8382C104.038 103.262 115.179 70.1618 125.377 71.1543C132.349 71.8491 140.587 89.5156 148.999 93.7338C150.239 94.0067 151.505 94.3293 152.745 94.627C153.837 94.5526 154.904 94.2548 155.996 93.5353C163.638 88.4239 155.078 59.6165 154.284 51.478C154.284 51.478 168.948 51.478 171.578 52.793V52.8178Z" fill="#D12C2C"/>
<path d="M160.537 134.377C153.713 142.392 136.444 160.927 136.444 160.927C62.3037 160.306 6.57461 115.594 5.33398 39.221L25.7547 18.8003C25.7547 18.8003 29.0301 65.7705 64.9587 102.94C95.6518 134.675 154.805 134.675 160.537 134.377Z" fill="#44A2B2"/>
</g>
</svg>
