<svg width="158" height="205" viewBox="0 0 158 205" fill="none" xmlns="http://www.w3.org/2000/svg">
<path d="M148.688 79.0056C107.053 117.465 60.5044 151.384 19.8614 191.431C16.1891 195.079 2.04598 214.83 0.954227 196.493C0.259475 184.881 5.19719 158.232 6.85963 145.206C11.7477 107.639 19.5885 70.3709 24.675 32.8294C25.2954 28.115 25.8908 7.74388 26.6352 5.95738C27.6029 3.72424 31.9947 0.87081 34.079 0.697122C38.0242 0.424183 96.4826 31.1174 105.167 35.6829C122.089 44.6155 138.614 54.4163 155.809 62.8774C161.442 65.8549 151.79 76.177 148.663 79.0304L148.688 79.0056Z" fill="#FFBD42"/>
<mask id="mask0_272_577" style="mask-type:luminance" maskUnits="userSpaceOnUse" x="0" y="0" width="158" height="205">
<path d="M148.688 79.0056C107.053 117.465 60.5044 151.384 19.8614 191.431C16.1891 195.079 2.04598 214.83 0.954227 196.493C0.259475 184.881 5.19719 158.232 6.85963 145.206C11.7477 107.639 19.5885 70.3709 24.675 32.8294C25.2954 28.115 25.8908 7.74388 26.6352 5.95738C27.6029 3.72424 31.9947 0.87081 34.079 0.697122C38.0242 0.424183 96.4826 31.1174 105.167 35.6829C122.089 44.6155 138.614 54.4163 155.809 62.8774C161.442 65.8549 151.79 76.177 148.663 79.0304L148.688 79.0056Z" fill="white"/>
</mask>
<g mask="url(#mask0_272_577)">
<path d="M64.2504 93.8424C58.2954 84.2399 70.5776 72.6276 77.7237 76.7216C98.7151 88.6813 74.3988 110.268 64.2504 93.8424Z" fill="#D12C2C"/>
<path d="M-18.5488 97.0197C-34.3048 71.6613 -1.84999 40.9433 17.0572 51.7368C72.5629 83.348 8.24878 140.467 -18.5488 97.0197Z" fill="#D12C2C"/>
<path d="M73.5061 119.326C99.4104 116.894 108.864 150.466 92.6615 160.167C45.1206 188.627 29.1908 123.37 73.5061 119.326Z" fill="#D12C2C"/>
<path d="M115.166 98.1611C126.034 97.3671 130.426 112.974 123.726 117.242C104.1 129.772 96.5814 99.4761 115.166 98.1611Z" fill="#D12C2C"/>
<path d="M-17.7544 192.946C-29.1185 172.451 2.56705 142.502 18.1493 149.995C63.9534 171.954 1.54981 228.056 -17.7544 192.946Z" fill="#D12C2C"/>
<path d="M148.017 91.8083C147.869 91.7587 175.336 54.1675 175.336 54.1675C175.336 54.1675 31.3735 -28.2845 28.2471 -29.5996C26.8328 -28.3342 21.5477 23.2759 20.1582 24.5661" fill="#CC8945"/>
</g>
</svg>
