<svg width="241" height="170" viewBox="0 0 241 170" fill="none" xmlns="http://www.w3.org/2000/svg">
<path d="M184.763 44.0696C184.863 44.5907 187.716 53.7465 187.716 53.7465C197.046 50.4713 216.995 47.2209 223.942 50.3969C254.983 64.5897 110.574 109.624 66.3826 117.093C33.5059 122.651 20.5786 124.14 17.8988 116.771C15.2191 109.401 37.4759 99.1039 48.8897 94.2158C48.8897 94.2158 49.51 84.3652 49.51 84.3901C6.46022 100.369 -44.1574 150.143 71.8662 128.879C94.5449 124.735 253.271 82.281 240.046 51.042C231.734 31.4152 184.763 44.0945 184.763 44.0945V44.0696Z" fill="#03A88D"/>
<path d="M198.558 69.3297C214.587 121.213 177.542 170.242 123.153 169.002C52.4618 163.369 21.2972 72.3073 68.8629 22.0122C115.585 -24.437 184.44 12.0871 198.335 68.5605L198.558 69.3545V69.3297Z" fill="#3EB2D9"/>
<path d="M205.731 72.7787C168.562 90.7927 95.5636 112.131 66.3592 117.044C45.8888 120.493 33.16 122.379 25.8154 121.535C25.8402 121.61 25.8899 121.66 25.9147 121.734C26.932 124.314 27.3786 127.093 27.1553 129.724C27.726 131.188 27.7508 132.651 27.4034 134.016C38.2465 133.892 52.7867 132.329 71.8428 128.83C87.3754 125.977 166.8 105.159 211.016 82.2572C209.131 79.1556 207.369 76.0044 205.756 72.7539L205.731 72.7787Z" fill="#03A88D"/>
</svg>
