<svg width="180" height="169" viewBox="0 0 180 169" fill="none" xmlns="http://www.w3.org/2000/svg">
<path d="M179.688 94.0196C179.167 99.8754 164.826 134.861 161.104 139.724C155 147.615 141.055 150.518 131.676 152.056L134.182 166.969C131.453 167.167 128.202 168.581 125.572 168.16C123.016 167.738 97.7324 139.576 97.1865 136.275C100.387 129.253 110.685 96.0542 115.945 93.6722C124.083 90 122.793 109.106 126.093 110.669L141.13 108.758C113.612 73.8966 107.682 84.1691 149.665 55.8083C153.834 55.1632 173.957 79.9261 176.909 82.8291C179.589 86.9232 180.185 89.0571 179.738 93.9948L179.688 94.0196Z" fill="#349C43"/>
<path d="M138.277 16.2815C136.837 18.8869 126.739 60.5223 122.967 60.2742C116.838 60.5223 54.7326 65.8818 87.7581 47.6198C88.6514 45.8084 81.0588 34.2706 78.2053 35.412C77.5354 35.6601 72.3744 47.2476 71.4563 48.9845C68.6029 54.2696 65.1539 66.3285 58.6282 66.254C56.9658 66.254 29.0765 55.3365 27.811 54.2447C21.1364 48.4882 32.7735 24.3456 37.0412 17.9688C44.9564 6.00911 73.7887 1.46838 87.4604 0.649566C105.574 -0.442187 110.536 10.9964 121.851 22.3854C125.051 22.1125 133.934 7.15051 138.277 16.2815Z" fill="#349C43"/>
<path d="M84.6553 119.774C88.1042 156.423 103.29 161.013 66.3684 164.611C60.0908 165.305 49.8681 166.124 44.3101 163.841C37.1889 160.938 5.55279 128.682 4.26254 121.437C2.89785 113.72 9.62207 103.944 11.3341 96.5497L10.3168 94.664C4.90767 92.5798 0.4662 90.6444 0.912827 83.8706C9.12579 81.9104 38.4791 71.9357 44.5582 74.938C46.3695 75.8313 67.5346 105.954 67.2865 107.939C66.7654 112.38 55.7486 111.934 52.4982 110.47L46.3199 123.422L84.6305 119.799L84.6553 119.774Z" fill="#349C43"/>
</svg>
