<svg width="351" height="235" viewBox="0 0 351 235" fill="none" xmlns="http://www.w3.org/2000/svg">
<path d="M216.823 157.441C171.987 165.183 120.302 187.39 81.9422 213.766C70.2059 220.341 63.1095 234.41 50.1573 234.782C40.3812 210.714 224.019 121.091 216.848 157.466L216.823 157.441Z" fill="#FF9B21"/>
<path d="M171.54 128.311C179.033 127.194 190.372 123.944 193.945 132.926L191.042 137.938C134.941 140.767 76.3834 170.666 31.0508 202.749L26.0883 200.044C23.8551 177.886 148.29 131.338 171.515 128.311H171.54Z" fill="#FF9B21"/>
<path d="M130.922 109.627C139.383 108.188 160.399 104.243 150.226 117.17C103.578 123.77 55.7147 143.719 17.3297 170.691C14.9228 172.378 3.68273 186.918 0.878906 178.407C17.3296 143.521 94.9435 118.311 130.922 109.627Z" fill="#FF9B21"/>
<path d="M306.619 89.0316C306.495 91.9347 331.953 120.544 335.204 126.648C350.488 155.505 292.079 128.756 282.799 122.479C275.926 129.402 235.085 192.376 232.827 160.442C233.546 151.758 244.96 111.04 242.801 107.12C232.901 101.736 219.626 105.78 208.932 103.398C144.494 93.0762 220.693 71.8861 239.849 61.44C249.501 -10.0202 253.793 -24.6596 292.625 49.2075C355.699 53.4504 376.194 50.7458 306.619 89.0316Z" fill="#FEC63F"/>
</svg>
