<svg width="259" height="161" viewBox="0 0 259 161" fill="none" xmlns="http://www.w3.org/2000/svg">
<path d="M92.3494 130.543C86.7666 129.65 80.613 131.387 76.3453 136.746C75.7994 137.441 75.328 138.185 74.8317 138.955C65.9985 156.323 88.6275 166.993 100.389 155.033L100.934 154.487C110.686 142.304 102.523 132.106 92.3494 130.543Z" fill="#515899"/>
<path d="M90.3391 139.947C88.106 139.6 85.6495 140.295 83.9623 142.429C83.739 142.702 83.5405 142.999 83.3668 143.322C79.8434 150.245 88.8752 154.512 93.5647 149.748L93.788 149.525C97.6835 144.662 94.4332 140.593 90.364 139.972L90.3391 139.947Z" fill="#171717"/>
<path d="M217.751 69.6287C217.181 69.6039 216.536 69.5791 215.94 69.5791L215.196 69.6535C208.819 70.3235 204.849 74.4176 203.31 79.2808C200.73 87.5186 205.023 97.9399 216.213 97.7414C235.84 96.9474 236.435 70.9934 217.751 69.6039V69.6287Z" fill="#515899"/>
<path d="M217.653 78.4121C217.429 78.4121 217.156 78.4121 216.908 78.4121H216.61C214.03 78.7099 212.417 80.3723 211.797 82.3573C210.755 85.6822 212.492 89.9251 217.032 89.8507C224.972 89.5281 225.221 79.0076 217.653 78.4617V78.4121Z" fill="#171717"/>
<path d="M257.105 33.253C248.52 64.9635 174.231 99.3289 160.782 105.557C144.853 112.901 56.0733 149.55 50.2175 150.641C17.2664 156.745 -12.0372 128.161 5.77827 96.3018C23.4944 64.5169 74.5835 44.1706 106.418 32.6079C136.044 21.8392 182.096 5.19 212.368 1.02149C236.684 -2.35302 265.764 1.2448 257.105 33.253Z" fill="#627EA6"/>
<path d="M207.426 51.5838C210.466 51.4888 212.852 48.8579 212.753 45.7076C212.655 42.5574 210.11 40.0806 207.069 40.1756C204.029 40.2706 201.643 42.9015 201.742 46.0518C201.84 49.2021 204.385 51.6788 207.426 51.5838Z" fill="#171717"/>
<path d="M194.751 57.3954C190.881 63.2264 179.69 55.5345 186.141 49.3313C190.384 45.2621 198.051 50.6464 195.099 56.7751L194.751 57.3954Z" fill="#171717"/>
<path d="M73.8139 81.4137C77.7839 86.5499 72.6974 94.2666 65.6506 90.3959C59.5467 87.071 68.7025 74.7887 73.8139 81.4137Z" fill="#171717"/>
<path d="M51.9789 88.1885C60.3408 89.1562 57.1896 104.143 49.0759 99.9993C44.1134 97.4684 45.5028 88.7343 51.1352 88.2133H52.0038L51.9789 88.1885Z" fill="#171717"/>
<path d="M70.5882 107.195C76.3944 115.06 62.4993 122.256 60.3406 112.604C59.5714 107.617 66.2213 102.927 70.0424 106.574L70.5882 107.195Z" fill="#171717"/>
<path d="M184.404 34.9658C187.034 38.8862 182.816 44.5931 178.474 43.3028C169.988 40.5486 177.829 28.3904 183.933 34.3703L184.404 34.9658Z" fill="#171717"/>
<path d="M88.2053 98.932C94.0114 106.798 80.1165 113.993 77.9578 104.341C77.1886 99.3538 83.8383 94.6643 87.6595 98.3117L88.2053 98.932Z" fill="#171717"/>
<path d="M195.162 36.094C197.929 36.0076 200.1 33.6279 200.011 30.779C199.922 27.93 197.607 25.6906 194.84 25.777C192.073 25.8635 189.902 28.2431 189.991 31.0921C190.08 33.9411 192.395 36.1805 195.162 36.094Z" fill="#171717"/>
</svg>
