<svg width="175" height="138" viewBox="0 0 175 138" fill="none" xmlns="http://www.w3.org/2000/svg">
<path d="M135.096 110.337C134.153 111.354 145.542 130.609 130.431 133.71C124.179 135 120.506 132.271 116.412 132.42C113.509 132.519 111.375 135.869 108.175 136.564C95.6939 139.343 90.5825 130.336 89.5403 130.336C88.2997 130.336 82.0718 140.658 70.0128 135.124C67.6805 134.057 65.4225 130.336 63.9089 130.038C61.2788 129.517 52.5943 139.591 42.7934 133.412C31.5285 126.316 39.6919 113.537 38.2279 112.049C5.10316 115.845 -3.13466 67.0883 2.67148 43.963C16.3432 -10.4758 105.544 -3.85083 141.771 9.27502C189.833 26.6935 183.506 99.8161 135.121 110.337H135.096ZM43.4385 50.5384C30.1638 54.2851 34.4316 83.3902 53.5373 73.8125C64.6037 68.2793 62.1224 45.2533 43.4385 50.5384ZM120.085 56.146C107.157 59.6446 114.13 82.894 127.652 79.4202C141.622 75.8224 138.942 51.0346 120.085 56.146ZM84.3793 76.4675C76.6626 77.7826 65.4225 90.0896 74.1317 96.8882C77.5558 99.5432 81.9725 94.2085 85.4959 93.737C91.7734 92.9182 98.1998 101.379 100.78 91.7768C101.078 86.194 90.0862 75.4998 84.4041 76.4675H84.3793Z" fill="#B0B0B0"/>
</svg>
