<svg width="162" height="163" viewBox="0 0 162 163" fill="none" xmlns="http://www.w3.org/2000/svg">
<path d="M65.3975 1.00738C5.57436 8.97222 -16.1863 78.77 14.6309 126.559C51.2543 185.911 138.198 167.773 158.246 104.302C176.558 48.1761 121.995 -6.98227 65.993 0.932946L65.4223 1.00738H65.3975Z" fill="#FFD63A"/>
<path d="M142.143 76.4127C145.716 76.9586 142.019 93.6822 139.24 100.109C127.826 126.46 89.3918 128.395 73.3629 105.89C70.5591 101.87 71.2537 97.7266 76.4892 101.324C95.5452 116.212 121.946 118.495 133.012 98.2229C138.967 87.3054 138.545 75.8916 142.118 76.4127H142.143Z" fill="#141212"/>
<path d="M85.1478 81.0283C81.3763 75.4206 80.7559 64.3295 87.6538 60.8309C98.6458 56.6872 104.154 74.0064 98.8194 81.4501C95.7675 86.6111 88.6712 86.5615 85.4456 81.4501L85.1478 81.0283Z" fill="#141212"/>
<path d="M121.375 77.5798C110.011 78.0512 106.885 56.4146 117.405 52.8416C127.926 51.1792 133.906 74.4781 121.797 77.5301L121.375 77.5798Z" fill="#141212"/>
</svg>
