<svg width="225" height="120" viewBox="0 0 225 120" fill="none" xmlns="http://www.w3.org/2000/svg">
<path d="M176.739 82.1983C173.042 97.3091 161.107 108.251 146.319 113.363C97.7359 131.501 23.7944 107.284 55.753 44.9546C89.8703 -11.2955 193.512 9.9192 176.962 81.3546L176.739 82.1983Z" fill="#171717"/>
<path d="M8.3856 31.8038C-0.86949 24.8315 29.8981 9.42285 35.5554 7.18972C57.713 -1.54431 63.8665 10.6635 74.5607 28.4789C65.0823 40.0664 55.5544 14.5094 47.391 14.6087C39.848 15.5268 13.4226 35.6002 8.3856 31.8038Z" fill="#171717"/>
<path d="M222.667 18.976C223.957 20.3655 225.446 23.0949 224.552 24.9807C223.907 28.1319 221.426 29.0003 218.25 29.0003C204.157 24.6581 190.807 4.51031 176.912 17.1399C175.399 18.5294 160.586 41.5307 157.162 28.2311C155.822 23.0205 178.078 1.28465 182.644 0.639525C190.013 -0.402603 217.853 13.7654 222.692 19.0009L222.667 18.976Z" fill="#171717"/>
<path d="M36.7699 45.4259C43.3701 45.1281 63.0216 66.864 54.4116 73.1664C46.3724 75.2258 42.2536 61.157 36.5219 57.9066C27.763 56.3682 11.2378 88.7983 0.369937 76.4416C-0.895504 70.4618 29.8968 45.7236 36.7451 45.4259H36.7699Z" fill="#171717"/>
<path d="M60.5398 47.0627C54.4607 53.1417 46.6943 38.0805 45.1063 37.088C35.9505 31.3067 22.6757 48.7499 13.1725 49.3702C9.45064 49.6183 9.54985 49.5439 9.72354 45.9213C10.2694 34.3834 40.5161 19.5455 50.7885 27.0637C53.5427 29.0736 63.6166 43.9859 60.5398 47.0627Z" fill="#171717"/>
<path d="M205.668 97.7317C194.453 100.139 191.997 87.8067 182.518 85.251L164.529 97.4836C148.649 92.7195 176.514 73.6387 182.493 73.6387C190.93 73.6139 207.455 88.03 205.668 97.7317Z" fill="#171717"/>
<path d="M41.2376 73.9602C47.8626 72.6947 63.569 82.9671 61.6585 90.1628C54.3388 100.584 48.2845 83.9596 43.1979 84.8529C37.2429 88.0289 27.8637 104.132 20.8666 102.346C8.70842 99.2194 35.1089 75.1512 41.2376 73.985V73.9602Z" fill="#171717"/>
<path d="M214.131 36.3457C217.481 38.9758 217.208 41.8045 214.503 44.8068C205.372 46.0474 198.102 41.9285 191.304 36.3705L175.845 51.4069C160.114 47.6602 182.693 26.3711 189.616 25.2793L214.131 36.3209V36.3457Z" fill="#171717"/>
<path d="M214.501 77.8809C202.244 80.2629 201.078 68.2536 193.113 62.7204C190.582 60.1151 165.422 77.4094 170.732 63.9114C173.61 56.5669 187.629 50.2397 195.247 51.8029C202.393 53.2668 219.017 73.3898 214.501 77.8809Z" fill="#171717"/>
<path d="M96.9145 97.2589C101.231 97.2589 104.731 93.7596 104.731 89.4429C104.731 85.1263 101.231 81.627 96.9145 81.627C92.5979 81.627 89.0986 85.1263 89.0986 89.4429C89.0986 93.7596 92.5979 97.2589 96.9145 97.2589Z" fill="white"/>
<path d="M128.279 98.7481C132.596 98.7481 136.095 95.2488 136.095 90.9322C136.095 86.6155 132.596 83.1162 128.279 83.1162C123.962 83.1162 120.463 86.6155 120.463 90.9322C120.463 95.2488 123.962 98.7481 128.279 98.7481Z" fill="white"/>
</svg>
