<svg width="169" height="233" viewBox="0 0 169 233" fill="none" xmlns="http://www.w3.org/2000/svg">
<path d="M40.4338 55.789C43.1383 51.1986 19.616 29.1155 37.9028 17.0814C58.3236 3.65782 55.9666 32.093 70.0105 38.4947C76.5362 37.3781 63.1622 14.9723 71.524 5.36981C90.3816 -16.3164 110.728 37.924 112.564 51.7942C114.698 68.0464 106.906 79.6836 107.254 92.0154C107.825 112.064 155.862 149.556 164.819 177.817C170.452 195.583 171.916 228.509 147.351 232.33C107.378 238.558 89.0911 154.766 73.1366 130.326C59.3656 109.186 40.1608 107.3 22.6927 92.2138C10.3609 81.5692 -4.62594 63.6298 2.52009 46.5339C13.2143 20.977 35.6698 63.8035 40.4338 55.7394V55.789Z" fill="#B2B8C2"/>
</svg>
