<svg width="128" height="179" viewBox="0 0 128 179" fill="none" xmlns="http://www.w3.org/2000/svg">
<path d="M115.716 95.8347C79.8865 251.013 -29.2391 159.33 8.8234 46.0607C11.5528 31.5701 113.086 36.483 114.252 63.7272C116.138 73.7267 117.453 83.081 115.741 95.8347H115.716Z" fill="#D6333E"/>
<path d="M97.7267 30.1052C96.8583 33.9264 103.707 33.3805 107.602 35.8121C120.232 42.0649 119.636 67.6715 103.384 56.481C99.9599 54.1238 95.7171 52.114 90.4568 50.6252C93.0621 55.7118 97.1562 82.1124 91.0771 83.353C81.8717 82.5838 81.1271 63.1556 69.1923 60.2277C55.8183 56.6051 27.3584 99.8534 24.9267 80.6981C23.7357 68.267 31.0801 58.5405 40.5833 50.0297C40.7322 47.1763 26.3657 47.3748 20.4603 47.0522C-21.7707 46.8537 20.5348 16.1606 41.8984 24.5968L30.857 17.2771C25.3982 13.7041 9.17077 13.2575 11.6272 5.61522C30.7329 -6.49331 56.4634 3.8039 71.078 16.9546C80.2587 2.6129 113.607 3.50615 125.095 15.0936C136.608 26.7555 105.716 25.5149 97.7267 30.1052Z" fill="#338A49"/>
<path d="M16.6633 90.922C30.1614 84.7437 31.5759 110.003 18.4749 106.951C13.0906 105.71 14.1821 94.768 16.6633 90.922Z" fill="#171717"/>
<path d="M64.1549 80.352C73.4844 77.7963 74.7997 95.0907 68.671 96.4554C61.3761 98.093 58.1255 82.0144 64.1549 80.352Z" fill="#171717"/>
<path d="M41.5742 90.2265C45.4946 89.3333 48.8195 96.7026 45.2464 99.1838C39.8373 102.037 36.2643 91.4423 41.5742 90.2265Z" fill="#171717"/>
<path d="M48.1245 118.737C56.2134 114.246 62.8879 131.788 53.2854 133.699C45.9657 135.163 43.3357 121.392 48.1245 118.737Z" fill="#171717"/>
<path d="M95.0952 92.7084C108.444 89.4331 103.68 110.772 94.7478 105.809C91.0507 103.08 89.8101 93.9987 95.0952 92.7084Z" fill="#171717"/>
<path d="M26.5363 120.795C34.1041 118.785 35.1213 133.226 28.5459 134.69C22.3428 135.459 20.6309 122.979 26.5363 120.795Z" fill="#171717"/>
<path d="M84.5744 128.661C93.5317 126.626 91.8942 143.722 82.4902 142.332C76.0886 141.39 80.2818 129.628 84.5744 128.661Z" fill="#171717"/>
<path d="M35.6687 153.274C47.9757 149.825 47.5538 166.921 39.6634 165.779C34.5024 165.035 30.8798 154.614 35.6687 153.274Z" fill="#171717"/>
<path d="M71.5727 110.001C81.6218 103.947 82.2919 122.432 73.2849 121.514C68.2479 120.646 68.2974 112.706 71.5727 110.001Z" fill="#171717"/>
<path d="M64.924 148.065C73.2362 142.11 73.9556 160.074 66.5863 159.504C61.8719 158.958 61.4503 150.894 64.924 148.065Z" fill="#171717"/>
</svg>
