<svg width="180" height="194" viewBox="0 0 180 194" fill="none" xmlns="http://www.w3.org/2000/svg">
<path d="M40.9035 130C43.0622 129.851 44.8735 130.819 44.5261 132.978C44.5261 136.774 34.5515 143.399 27.9265 146.873C19.9121 152.356 4.50346 153.473 13.7089 143.523C21.0534 138.585 32.095 131.861 40.3824 130.05L40.9283 130H40.9035Z" fill="#FFD63A"/>
<path d="M59.5614 151.787C63.9532 155.36 49.6364 188.485 43.0114 180.669C39.761 173.2 51.8943 150.099 59.2885 151.613L59.5366 151.787H59.5614Z" fill="#FFD63A"/>
<path d="M150.549 130.175C157.174 127.867 174.592 150.447 166.9 155.087C162.831 156.327 157.596 147.866 154.891 143.946C151.839 139.256 146.579 133.748 150.177 130.324L150.549 130.175Z" fill="#FFD63A"/>
<path d="M88.9641 163.373C96.0604 164.638 92.8596 186.101 88.3934 191.312C77.6247 202.899 83.9023 164.241 88.6415 163.472L88.9641 163.373Z" fill="#FFD63A"/>
<path d="M125.066 160.521C121.27 154.764 123.478 148.412 130.55 153.201C135.562 156.575 146.504 171.116 141.79 175.855C135.016 177.617 128.763 165.632 125.414 161.116L125.066 160.521Z" fill="#FFD63A"/>
<path d="M154.123 18.7157C156.679 25.2414 135.762 44.2231 130.725 37.747C129.162 31.8913 149.111 15.3661 153.949 18.4924L154.123 18.7405V18.7157Z" fill="#FFD63A"/>
<path d="M93.3569 0.107139C99.8578 3.30796 97.972 31.3462 89.7343 29.9071C85.0447 26.7311 87.6996 1.22381 93.0592 0.0576172L93.3569 0.107139Z" fill="#FFD63A"/>
<path d="M179.232 92.1612C176.229 94.5184 168.637 93.5011 164.022 93.7492C159.233 94.0222 146.082 93.7492 153.898 87.3475C158.637 82.9805 181.068 83.2286 179.455 91.913L179.232 92.1612Z" fill="#FFD63A"/>
<path d="M165.412 46.5059C167 46.5555 169.059 46.5058 170.324 47.5728C174.394 51.9646 160.375 57.5972 156.355 59.9295C148.787 64.0236 139.334 63.701 143.527 57.2249C148.564 52.3616 157.968 47.6473 164.766 46.5804L165.412 46.5307V46.5059Z" fill="#FFD63A"/>
<path d="M38.9681 15.0453C43.8314 14.4746 59.0167 36.0368 53.3594 39.585C45.469 41.9918 32.6161 18.6432 38.6455 15.095L38.9929 15.0453H38.9681Z" fill="#FFD63A"/>
<path d="M30.5792 63.0565C25.8152 66.5055 3.78165 55.6376 8.71935 48.3427C13.0367 42.8343 35.5417 57.9948 30.8522 62.7836L30.5792 63.0565Z" fill="#FFD63A"/>
<path d="M0.953032 100.4C-2.24779 92.3854 11.2502 95.5365 15.2947 96.7027C24.649 99.2584 26.113 104.122 18.1978 104.668C12.7886 104.643 5.17117 104.891 1.22597 100.797L0.953032 100.4Z" fill="#FFD63A"/>
<path d="M50.654 78.613C60.9016 43.8506 102.487 35.4143 125.265 63.1051C137.25 76.9754 142.485 96.6765 136.803 114.12C127.623 144.093 88.0962 155.606 65.4175 136.674C49.1156 123.152 44.1035 99.2075 50.4555 79.2581L50.654 78.5882V78.613Z" fill="#FFD63A"/>
</svg>
