<svg width="226" height="203" viewBox="0 0 226 203" fill="none" xmlns="http://www.w3.org/2000/svg">
<path d="M101.251 23.7118C101.251 23.7118 104.551 3.93629 116.064 1.13247C142.167 -5.19474 140.851 30.6098 140.851 30.6098C140.851 30.6098 156.285 13.1666 166.657 19.1216C179.385 26.4413 173.579 48.0281 173.579 48.0281C173.579 48.0281 185.415 39.8896 195.96 47.5319C207.448 55.8689 197.375 76.3145 197.375 76.3145C197.375 76.3145 205.463 73.7837 213.875 78.0763C230.698 86.6366 208.639 108.645 208.639 108.645C208.639 108.645 233.477 128.173 223.304 144.648C215.91 156.633 189.013 142.018 189.013 142.018C189.013 142.018 200.823 164.647 188.938 173.282C169.063 187.723 155.987 161.446 155.987 161.446C155.987 161.446 156.856 214.595 116.361 176.508C113.21 203.901 64.1806 218.069 59.6647 177.897C39.6658 202.933 5.07702 178.642 25.8948 149.958C-3.43369 147.378 -8.8428 119.662 17.7067 111.176C-5.17054 94.8495 2.54616 73.5851 28.4753 70.4091C9.86587 44.1326 29.6911 21.3051 59.5903 37.5573C54.1811 7.08747 87.3803 -8.37076 101.201 23.7615L101.251 23.7118Z" fill="#FFCF3D"/>
<path d="M193.627 123.534C183.007 153.805 108.569 175.244 77.5537 171.125C3.31451 161.274 27.9286 55.7958 82.9381 35.9705C113.284 25.053 140.205 37.4344 165.341 55.7709C183.553 69.0952 203.031 96.7365 193.627 123.559V123.534Z" fill="#A3682E"/>
<path d="M164.598 95.9412C169.685 95.7178 176.31 103.633 176.31 103.633C179.585 108.422 176.905 110.829 172.811 110.258C166.707 107.926 165.243 114.228 153.78 122.714C138.52 134.029 122.02 139.86 102.815 140.232C97.7034 140.331 88.8701 139.462 85.843 138.768C81.1038 137.676 78.7219 148.271 73.1887 142.415C71.8736 140.157 73.2879 125.964 78.6722 122.193C80.4091 120.977 83.2129 122.342 83.4362 124.476C84.6272 136.485 92.989 135.046 102.219 135.145C117.479 135.319 146.634 124.476 158.693 109.762C164.871 102.244 156.981 96.2637 164.548 95.9412H164.598Z" fill="#171717"/>
<path d="M132.043 71.5004C141.993 66.91 152.216 91.4497 141.472 96.9581C131.299 101.251 118.942 77.5298 132.043 71.5004Z" fill="#171717"/>
<path d="M134.326 73.7091C138.047 71.9971 141.869 81.1528 137.849 83.2122C134.053 84.825 129.437 75.9671 134.326 73.7091Z" fill="white"/>
<path d="M91.9717 84.0072C101.922 79.4169 112.144 103.957 101.401 109.465C91.2274 113.757 78.8707 90.0367 91.9717 84.0072Z" fill="#171717"/>
<path d="M94.4525 86.2879C98.1248 84.6006 101.896 93.6323 97.9263 95.667C94.1796 97.255 89.6141 88.521 94.4525 86.2879Z" fill="white"/>
</svg>
