<svg width="275" height="121" viewBox="0 0 275 121" fill="none" xmlns="http://www.w3.org/2000/svg">
<path d="M246.347 0.733943C223.742 -0.0848718 182.702 3.61221 161.785 11.1304C150.694 15.1004 142.233 22.0975 129.901 23.2637C120.398 24.1818 110.076 20.1374 100.35 19.1697C74.073 16.5395 20.2297 19.6411 5.26772 35.4219C-2.99487 44.1311 0.280367 69.961 6.21057 83.8561C15.3912 105.418 17.1033 115.591 41.4445 119.685C61.6667 123.06 102.955 119.164 115.758 101.101C120.646 94.2029 126.899 62.6909 136.824 61.7232C146.749 60.7555 150.818 91.2254 167.418 100.133C180.097 106.932 207.391 105.79 221.733 104.153C259.324 99.9098 268.926 87.2058 272.946 50.8305C275.725 25.348 278.553 1.85048 246.347 0.709106V0.733943Z" fill="#171717"/>
<path d="M237.91 79.3384C223.519 84.9956 190.99 90.4544 177.219 82.6136C161.86 73.8796 158.485 56.1882 156.426 40.2337C155.706 34.7501 159.279 29.5643 164.788 28.0756C176.425 24.9492 195.059 21.1528 198.781 20.607C210.368 18.9445 246.917 12.4436 252.922 23.4108C258.951 34.378 255.081 72.5893 237.91 79.3135V79.3384Z" fill="#676A6E"/>
<path d="M92.7325 97.9225C78.49 101.247 58.2678 104.349 43.0825 101.644C26.0362 98.5924 11.9923 48.6447 22.8106 43.7567C33.877 38.7445 84.1473 34.0301 104.27 34.3278C109.258 34.4023 113.376 38.2483 113.724 43.2108C114.865 59.3638 111.168 93.6051 92.7325 97.9225Z" fill="#676A6E"/>
</svg>
