<svg width="129" height="234" viewBox="0 0 129 234" fill="none" xmlns="http://www.w3.org/2000/svg">
<path d="M52.6869 179.875C54.9201 180.595 82.8838 178.957 82.8838 178.957C85.2906 221.659 91.3946 237.688 59.2126 233.197C49.5109 226.25 53.6794 192.778 52.6869 179.875Z" fill="#593700"/>
<path d="M115.958 69.5338C111.418 78.1685 89.0863 76.9279 89.0863 76.9279C100.748 95.2395 157.172 134.493 107.175 142.458C111.418 151.043 135.957 173.374 125.462 183.572C94.173 197.12 19.0404 197.17 4.37616 183.547C-10.2881 169.925 26.3105 140.523 26.3105 140.523C-8.25337 136.552 6.28674 117.571 17.2539 104.023C21.7946 98.4156 36.3596 80.7738 38.3446 75.6376C41.7935 67.7969 12.5148 75.8113 12.217 64.0005C9.53726 53.4304 53.53 5.5173 60.1301 0.852539C77.0771 2.53979 120.474 60.9734 115.934 69.6082L115.958 69.5338Z" fill="#257A55"/>
</svg>
