<svg width="303" height="203" viewBox="0 0 303 203" fill="none" xmlns="http://www.w3.org/2000/svg">
<path d="M302.327 43.7437C303.294 41.0639 301.781 38.0865 299.076 37.218C295.33 36.0022 292.203 35.3074 289.002 34.5134C272.428 30.2705 257.614 35.1834 243.248 43.2475C246.077 19.5763 225.159 -0.869253 202.034 0.619501C195.707 2.70376 200.397 23.6952 201.985 28.9803C205.483 40.6174 212.778 49.1032 219.18 59.0531C200.421 80.4663 171.391 91.6072 143.253 93.6914C109.93 96.1231 40.7277 77.5881 16.3618 102.227C-5.22517 124.087 -5.02668 167.434 19.1408 187.458C49.7843 212.792 121.17 204.033 151.193 179.022C160.87 190.088 173.698 199.368 188.313 190.882C206.625 180.263 193.226 157.832 194.913 155.574C229.923 138.677 234.39 102.103 237.988 67.0923C255.158 72.5015 281.484 65.8269 294.858 53.5943C297.736 50.9393 300.962 47.54 302.351 43.7685L302.327 43.7437ZM52.2158 169.494C37.7253 174.407 35.9637 153.787 44.4496 151.306C59.4612 146.89 59.3618 167.062 52.2158 169.494Z" fill="#3A8BE0"/>
<path d="M44.4756 151.307C59.4872 146.915 59.388 167.088 52.2419 169.495C37.7266 174.383 35.9649 153.788 44.4756 151.307Z" fill="#231F20"/>
</svg>
