<svg width="199" height="144" viewBox="0 0 199 144" fill="none" xmlns="http://www.w3.org/2000/svg">
<path d="M175.193 133.953C140.48 145.391 89.6143 143.406 52.321 142.935C41.999 142.29 33.4138 142.712 24.0346 140.305C-2.61409 131.075 0.0905272 70.383 1.13266 43.6599C2.24922 22.5444 9.86671 9.71627 29.692 6.14326C66.4642 1.20555 113.285 0.386762 151.968 0.585263C186.582 0.287512 192.959 14.0089 195.688 46.0916C196.681 75.0479 208.318 119.065 175.764 133.705L175.168 133.953H175.193Z" fill="#E62031"/>
<path d="M121.025 73.2134C107.924 82.5677 95.0466 91.8475 80.4568 99.1424C79.0424 100.06 77.1567 99.0929 77.0823 97.4057C76.0153 80.3346 75.1221 63.7846 74.8988 49.3189C74.8243 47.6316 76.586 46.4902 78.0995 47.2842C92.5901 53.3633 106.783 60.4101 120.852 69.4418C122.34 70.211 122.44 72.32 121.025 73.2381V73.2134Z" fill="white"/>
</svg>
